<?xml version="1.0" encoding="UTF-8" ?>
<!DOCTYPE svg PUBLIC "-//W3C//DTD SVG 1.1//EN" "http://www.w3.org/Graphics/SVG/1.1/DTD/svg11.dtd">
<svg width="512pt" height="512pt" viewBox="0 0 512 512" version="1.1" xmlns="http://www.w3.org/2000/svg">
<g id="#ffffffff">
<path fill="#ffffff" opacity="1.00" d=" M 13.42 86.31 C 19.21 81.75 26.68 79.83 33.97 80.00 C 182.30 80.01 330.64 79.98 478.98 80.01 C 486.50 79.92 494.11 82.34 499.83 87.30 C 505.85 92.29 509.73 99.55 511.02 107.22 C 426.02 163.23 341.01 219.24 256.00 275.24 C 170.99 219.24 85.98 163.23 0.98 107.22 C 2.34 99.02 6.73 91.31 13.42 86.31 Z" />
<path fill="#ffffff" opacity="1.00" d=" M 0.00 144.87 C 57.49 182.84 115.07 220.69 172.59 258.62 C 115.07 295.03 57.49 331.34 0.00 367.79 L 0.00 144.87 Z" />
<path fill="#ffffff" opacity="1.00" d=" M 339.41 258.62 C 396.93 220.69 454.51 182.84 512.00 144.87 L 512.00 367.79 C 454.51 331.34 396.93 295.03 339.41 258.62 Z" />
<path fill="#ffffff" opacity="1.00" d=" M 1.04 405.00 C 67.99 362.63 134.95 320.27 201.90 277.91 C 216.83 287.72 231.71 297.62 246.66 307.40 C 252.19 311.21 259.82 311.21 265.36 307.39 C 280.30 297.62 295.17 287.74 310.10 277.94 C 377.05 320.30 444.02 362.64 510.96 405.01 C 509.58 412.85 505.49 420.25 499.20 425.21 C 493.54 429.80 486.22 432.07 478.97 431.99 C 330.62 432.02 182.27 431.99 33.93 432.00 C 26.64 432.18 19.21 430.19 13.41 425.68 C 6.78 420.72 2.46 413.10 1.04 405.00 Z" />
</g>
</svg>
