<?xml version="1.0" encoding="UTF-8" ?>
<!DOCTYPE svg PUBLIC "-//W3C//DTD SVG 1.1//EN" "http://www.w3.org/Graphics/SVG/1.1/DTD/svg11.dtd">
<svg width="597pt" height="512pt" viewBox="0 0 597 512" version="1.1" xmlns="http://www.w3.org/2000/svg">
<g id="#25252541">
<path fill="#252525" opacity="0.25" d=" M 134.88 0.00 L 176.82 0.00 C 179.76 0.68 182.74 1.42 185.37 2.95 C 163.03 -1.43 140.08 0.39 117.75 3.84 C 123.18 1.30 129.20 1.46 134.88 0.00 Z" />
</g>
<g id="#2323233d">
<path fill="#232323" opacity="0.24" d=" M 420.81 0.00 L 462.12 0.00 C 465.95 1.42 470.16 0.71 474.03 1.99 C 475.79 2.54 477.51 3.23 479.27 3.80 C 457.46 0.41 435.06 -1.33 413.21 2.66 C 415.28 0.76 418.24 0.76 420.81 0.00 Z" />
</g>
<g id="#959595ff">
<path fill="#959595" opacity="1.00" d=" M 117.75 3.84 C 140.08 0.39 163.03 -1.43 185.37 2.95 C 192.43 4.24 199.35 6.24 206.01 8.89 C 220.13 13.87 233.55 20.87 245.77 29.50 C 264.42 41.80 282.15 55.56 297.91 71.43 C 298.30 71.47 299.07 71.54 299.45 71.58 C 313.89 56.50 330.58 43.77 347.79 32.02 C 367.34 18.04 389.53 7.30 413.21 2.66 C 435.06 -1.33 457.46 0.41 479.27 3.80 C 501.92 7.82 523.97 16.68 542.37 30.64 C 568.89 50.37 586.64 80.65 592.90 112.92 C 596.09 125.81 596.50 139.19 597.00 152.41 L 597.00 158.77 C 596.95 169.66 595.29 180.46 592.97 191.08 C 591.80 196.57 589.42 201.69 588.05 207.13 C 586.56 213.35 583.00 218.78 580.77 224.74 C 578.98 229.94 575.63 234.36 573.21 239.25 C 569.59 245.51 566.03 251.83 561.57 257.54 C 554.72 268.41 546.10 277.98 538.02 287.93 C 529.69 296.29 522.17 305.45 513.36 313.36 C 467.66 357.33 421.95 401.35 376.28 445.38 C 365.54 455.25 355.53 465.90 344.65 475.62 C 336.59 483.60 328.40 491.46 320.31 499.41 C 315.11 503.62 310.99 509.64 304.13 511.30 C 299.26 511.90 293.91 512.27 289.46 509.78 C 284.59 507.47 281.32 503.05 277.39 499.54 C 262.62 485.65 248.35 471.25 233.53 457.43 C 218.35 442.23 202.48 427.78 187.35 412.54 C 179.33 405.30 171.69 397.66 163.97 390.11 C 134.53 361.85 105.20 333.48 75.85 305.13 C 71.16 300.84 66.31 296.64 62.51 291.52 C 54.12 281.82 45.86 272.02 38.42 261.57 C 28.32 247.06 18.50 231.99 12.94 215.07 C 5.36 197.23 0.43 178.08 0.00 158.63 L 0.00 153.56 C 0.64 147.75 1.15 141.92 1.23 136.07 C 2.53 124.91 4.81 113.90 6.78 102.83 C 12.70 81.38 23.45 61.06 38.98 45.02 C 57.07 25.55 81.39 12.55 107.05 6.15 L 107.78 5.66 C 111.11 5.07 114.43 4.46 117.75 3.84 Z" />
</g>
<g id="#5050508a">
<path fill="#505050" opacity="0.54" d=" M 1.39 127.90 C 2.39 119.40 3.88 110.90 6.78 102.83 C 4.81 113.90 2.53 124.91 1.23 136.07 C 1.15 141.92 0.64 147.75 0.00 153.56 L 0.00 136.74 C 1.15 133.92 1.01 130.86 1.39 127.90 Z" />
</g>
</svg>
