<?xml version="1.0" encoding="UTF-8" ?>
<!DOCTYPE svg PUBLIC "-//W3C//DTD SVG 1.1//EN" "http://www.w3.org/Graphics/SVG/1.1/DTD/svg11.dtd">
<svg width="512pt" height="512pt" viewBox="0 0 512 512" version="1.1" xmlns="http://www.w3.org/2000/svg">
<g id="#518479ff">
<path fill="#518479" opacity="1.00" d=" M 321.45 25.69 C 334.56 22.71 348.84 25.30 359.97 32.85 C 372.38 41.07 380.76 55.07 381.95 69.92 C 383.20 83.24 378.70 96.94 369.86 106.97 C 361.19 117.02 348.34 123.32 335.08 123.96 C 320.24 124.85 305.22 118.58 295.36 107.48 C 284.92 96.06 280.45 79.60 283.57 64.46 C 287.17 45.58 302.69 29.77 321.45 25.69 Z" />
<path fill="#518479" opacity="1.00" d=" M 0.00 73.27 C 0.39 65.11 7.76 58.08 15.96 58.28 C 95.44 58.28 174.92 58.23 254.41 58.30 C 252.28 68.82 252.32 79.73 254.40 90.26 C 174.95 90.26 95.49 90.29 16.03 90.24 C 7.97 90.42 0.70 83.67 0.00 75.68 L 0.00 73.27 Z" />
<path fill="#518479" opacity="1.00" d=" M 410.37 58.28 C 437.25 58.25 464.13 58.29 491.00 58.26 C 494.58 58.30 498.30 57.95 501.70 59.31 C 507.44 61.48 511.56 67.15 512.00 73.26 L 512.00 75.63 C 511.30 83.63 504.07 90.44 495.98 90.24 C 467.45 90.29 438.91 90.25 410.38 90.26 C 412.45 79.73 412.47 68.81 410.37 58.28 Z" />
<path fill="#518479" opacity="1.00" d=" M 174.40 206.49 C 188.03 205.01 202.20 209.46 212.43 218.61 C 222.61 227.46 228.89 240.60 229.34 254.08 C 230.01 268.85 223.57 283.69 212.42 293.39 C 202.82 301.94 189.78 306.44 176.95 305.69 C 161.79 304.98 147.27 296.77 138.70 284.28 C 130.18 272.20 127.62 256.21 131.83 242.05 C 137.14 223.05 154.75 208.34 174.40 206.49 Z" />
<path fill="#518479" opacity="1.00" d=" M 0.00 254.47 C 0.76 246.55 7.91 239.83 15.94 240.02 C 44.50 239.97 73.06 240.02 101.62 240.00 C 99.54 250.54 99.53 261.46 101.63 272.00 C 73.09 271.98 44.54 272.03 16.00 271.98 C 8.00 272.14 0.81 265.48 0.00 257.59 L 0.00 254.47 Z" />
<path fill="#518479" opacity="1.00" d=" M 257.60 240.01 C 337.08 240.00 416.56 239.98 496.04 240.02 C 504.06 239.82 511.13 246.55 512.00 254.41 L 512.00 257.54 C 511.19 265.43 504.06 272.15 496.03 271.98 C 416.55 272.03 337.07 271.99 257.60 272.00 C 259.69 261.46 259.69 250.54 257.60 240.01 Z" />
<path fill="#518479" opacity="1.00" d=" M 323.49 388.77 C 337.38 386.17 352.31 389.89 363.31 398.78 C 374.04 407.25 381.04 420.30 382.00 433.95 C 383.07 446.95 378.68 460.26 370.15 470.13 C 361.23 480.63 347.78 487.14 333.99 487.48 C 318.67 488.11 303.36 481.02 293.77 469.10 C 284.45 457.83 280.66 442.34 283.56 428.03 C 287.23 408.41 303.82 392.13 323.49 388.77 Z" />
<path fill="#518479" opacity="1.00" d=" M 10.05 422.89 C 13.83 421.31 18.01 421.80 22.00 421.73 C 99.46 421.74 176.93 421.72 254.39 421.74 C 252.32 432.27 252.28 443.18 254.41 453.70 C 176.63 453.77 98.84 453.70 21.05 453.74 C 17.38 453.69 13.53 454.08 10.07 452.58 C 4.47 450.32 0.38 444.82 0.00 438.77 L 0.00 436.32 C 0.61 430.45 4.50 425.01 10.05 422.89 Z" />
<path fill="#518479" opacity="1.00" d=" M 410.38 421.74 C 438.89 421.74 467.41 421.71 495.93 421.75 C 504.05 421.50 511.26 428.37 512.00 436.35 L 512.00 438.75 C 511.54 446.86 504.24 453.89 496.06 453.72 C 467.50 453.74 438.93 453.74 410.36 453.71 C 412.47 443.18 412.44 432.27 410.38 421.74 Z" />
</g>
</svg>
