<?xml version="1.0" encoding="UTF-8" ?>
<!DOCTYPE svg PUBLIC "-//W3C//DTD SVG 1.1//EN" "http://www.w3.org/Graphics/SVG/1.1/DTD/svg11.dtd">
<svg width="512pt" height="512pt" viewBox="0 0 512 512" version="1.1" xmlns="http://www.w3.org/2000/svg">
<g id="#ffffffff">
<path fill="#ffffff" opacity="1.00" d=" M 150.94 85.88 C 174.66 62.25 206.57 46.94 239.91 43.53 C 268.83 40.38 298.67 45.81 324.49 59.26 C 352.67 73.77 375.96 97.52 389.96 125.95 C 403.22 152.73 408.19 183.58 403.70 213.15 C 399.73 239.66 390.20 264.98 378.95 289.20 C 360.05 329.14 335.96 366.40 309.95 402.03 C 292.92 425.21 275.00 447.75 255.99 469.33 C 223.62 432.33 193.86 393.00 167.53 351.48 C 147.17 318.89 128.61 284.80 116.66 248.14 C 108.70 223.71 104.29 197.62 108.00 171.98 C 112.25 139.57 127.65 108.80 150.94 85.88 M 245.54 139.70 C 230.55 142.59 217.12 152.34 209.64 165.63 C 202.32 178.32 200.68 194.09 205.14 208.04 C 209.37 221.65 219.36 233.34 232.13 239.66 C 244.34 245.88 259.01 247.03 272.04 242.84 C 285.46 238.67 296.99 228.91 303.40 216.42 C 309.65 204.41 311.03 189.99 307.18 177.02 C 303.41 163.92 294.35 152.46 282.51 145.72 C 271.45 139.33 258.05 137.17 245.54 139.70 Z" />
</g>
</svg>
