<?xml version="1.0" encoding="UTF-8" ?>
<!DOCTYPE svg PUBLIC "-//W3C//DTD SVG 1.1//EN" "http://www.w3.org/Graphics/SVG/1.1/DTD/svg11.dtd">
<svg width="512pt" height="512pt" viewBox="0 0 512 512" version="1.1" xmlns="http://www.w3.org/2000/svg">
<g id="#141d28ff">
<path fill="#141d28" opacity="1.00" d=" M 83.94 44.10 C 101.67 38.42 120.40 36.53 138.96 36.66 C 166.09 37.47 192.12 48.39 213.97 64.07 C 229.01 74.12 243.11 85.57 256.00 98.27 C 268.89 85.57 282.99 74.12 298.04 64.06 C 320.14 48.22 346.53 37.17 373.99 36.64 C 392.21 36.62 410.61 38.50 428.02 44.09 C 459.28 53.41 486.42 76.38 499.54 106.40 C 508.33 125.46 511.42 146.60 512.00 167.43 L 512.00 172.61 C 511.18 198.33 502.54 223.36 489.24 245.23 C 479.11 262.20 466.69 277.77 453.00 292.00 C 442.76 303.09 431.46 313.14 420.72 323.73 C 370.13 372.45 319.56 421.17 268.97 469.88 C 264.33 474.81 256.92 476.62 250.50 474.56 C 245.53 473.08 242.15 468.92 238.50 465.52 C 178.09 407.27 117.74 348.94 57.29 290.75 C 46.18 278.02 35.18 265.11 26.21 250.76 C 19.44 240.89 14.16 230.07 10.20 218.80 C 4.12 204.15 0.54 188.44 0.00 172.57 L 0.00 167.48 C 0.59 143.47 4.81 118.93 16.78 97.82 C 30.84 71.88 55.83 52.59 83.94 44.10 Z" />
</g>
</svg>
