<svg width="119" height="65" viewBox="0 0 119 65" fill="none" xmlns="http://www.w3.org/2000/svg">
<path d="M33.9207 33.0171H17.4141V16.2934C17.4141 7.29556 24.6149 0 33.4923 0H49.999V16.7237C49.999 25.7253 42.8018 33.0171 33.9207 33.0171Z" fill="url(#paint0_linear_432_28520)"/>
<path d="M25.9148 33.0171H17.4141V24.4046C17.4141 17.2512 23.1378 11.4521 30.1984 11.4521H38.6991V20.0647C38.6991 27.218 32.9754 33.0171 25.9148 33.0171Z" fill="url(#paint1_linear_432_28520)"/>
<path d="M23.0835 22.4327V33.0168H12.6366C5.65731 33.0168 0 27.2852 0 20.2141V9.62988H10.4468C17.4261 9.62988 23.0835 15.3616 23.0835 22.4327Z" fill="#4E5A70"/>
<path d="M23.0837 26.5855V33.0168H16.7358C10.7425 33.0168 5.88281 28.0933 5.88281 22.0211V15.5898H12.2307C18.224 15.5898 23.0837 20.5134 23.0837 26.5855Z" fill="#20293B"/>
<path d="M90.4507 43.6936H84.793V38.041C84.793 35.0011 87.2596 32.5332 90.3058 32.5332H95.9635V38.1858C95.96 41.2292 93.4933 43.6936 90.4507 43.6936Z" fill="url(#paint2_linear_432_28520)"/>
<path d="M87.7049 43.6936H84.793V40.7843C84.793 38.3658 86.7543 36.4062 89.1749 36.4062H92.0868V39.3155C92.0868 41.7341 90.1256 43.6936 87.7049 43.6936Z" fill="url(#paint3_linear_432_28520)"/>
<path d="M27.1421 47.9651V39.9648H23.2266V55.6441H23.269C23.2442 55.9548 23.2266 56.2655 23.2266 56.5833V61.459H27.1421V56.5833C27.1421 52.4137 30.5381 49.0208 34.7116 49.0208H36.6694V45.1089H34.7116C31.8138 45.1089 29.167 46.1892 27.1421 47.9651Z" fill="white"/>
<path d="M44.9856 45.1084C40.4728 45.1084 36.8047 48.7766 36.8047 53.2816C36.8047 57.7866 40.4764 61.4548 44.9856 61.4548C49.4948 61.4548 53.1665 57.7866 53.1665 53.2816C53.1665 48.7766 49.4983 45.1084 44.9856 45.1084ZM44.9856 57.5465C42.632 57.5465 40.7167 55.633 40.7167 53.2816C40.7167 50.9303 42.632 49.0167 44.9856 49.0167C47.3391 49.0167 49.2545 50.9303 49.2545 53.2816C49.2545 55.6365 47.3391 57.5465 44.9856 57.5465Z" fill="white"/>
<path d="M92.841 45.1084C88.3283 45.1084 84.6602 48.7766 84.6602 53.2816C84.6602 57.7866 88.3318 61.4548 92.841 61.4548C97.3502 61.4548 101.022 57.7866 101.022 53.2816C101.022 48.7766 97.3538 45.1084 92.841 45.1084ZM92.841 57.5465C90.4875 57.5465 88.5721 55.633 88.5721 53.2816C88.5721 50.9303 90.4875 49.0167 92.841 49.0167C95.1946 49.0167 97.1099 50.9303 97.1099 53.2816C97.1099 55.6365 95.1946 57.5465 92.841 57.5465Z" fill="white"/>
<path d="M110.817 45.1084C109.255 45.1084 107.792 45.5497 106.548 46.3123V45.1084H102.633V64.0325H106.548V60.2547C107.792 61.0173 109.252 61.4587 110.817 61.4587C115.33 61.4587 118.998 57.7904 118.998 53.2853C118.998 48.7802 115.326 45.1084 110.817 45.1084ZM110.817 57.5467C108.464 57.5467 106.548 55.6331 106.548 53.2818C106.548 50.9304 108.464 49.0168 110.817 49.0168C113.171 49.0168 115.086 50.9304 115.086 53.2818C115.086 55.6367 113.171 57.5467 110.817 57.5467Z" fill="white"/>
<path d="M80.417 57.1444C79.9257 57.6351 79.2543 57.6069 78.8303 57.4339C78.5016 57.3032 78.1093 57.0208 78.1023 56.4135V48.6603C79.2084 48.3673 80.2721 47.926 81.2333 47.3434C82.0001 46.9021 82.6963 46.3619 83.3041 45.7476C83.9119 45.1368 84.4244 44.4448 84.7954 43.6892C84.025 44.0352 83.2864 44.3318 82.5549 44.5684C81.8234 44.8084 81.0955 44.9779 80.3781 45.098C79.6112 45.2145 78.8515 45.2568 78.1023 45.2462V39.9609H74.1868V44.8614H74.1797L74.1868 47.2057V56.5088C74.2186 58.5354 75.4342 60.2795 77.3602 61.0563C78.0281 61.3281 78.7278 61.4587 79.4169 61.4587C80.8092 61.4587 82.1697 60.9221 83.184 59.9088L84.5692 58.5283L81.8022 55.7639L80.417 57.1444Z" fill="white"/>
<path d="M68.3979 56.0108C68.3979 56.8582 67.7088 57.5466 66.8607 57.5466C66.0126 57.5466 65.3235 56.8582 65.3235 56.0108V48.7555H61.4079V56.0108C61.4079 56.8582 60.7188 57.5466 59.8707 57.5466C59.0226 57.5466 58.3335 56.8582 58.3335 56.0108V45.1084H54.418V56.0108C54.418 59.0153 56.8634 61.4585 59.8707 61.4585C61.1995 61.4585 62.4186 60.9783 63.3657 60.1875C64.3128 60.9819 65.532 61.4585 66.8607 61.4585C69.868 61.4585 72.3134 59.0153 72.3134 56.0108V45.1084H68.3979V56.0108Z" fill="white"/>
<path d="M21.7147 50.2565C21.6687 50.08 21.5839 49.8434 21.386 49.5716C21.1952 49.3033 20.8489 49.0173 20.4672 48.8866C20.0856 48.7489 19.7251 48.7525 19.4742 48.7913C19.347 48.8125 19.241 48.8407 19.1491 48.869L19.1349 48.8761L19.089 48.8937L19.0007 48.929L18.8381 48.9926L18.513 49.1232L17.8522 49.3739C17.414 49.5398 16.9687 49.7093 16.5234 49.847C15.6364 50.1188 14.7388 50.373 13.8836 50.4542C13.039 50.5601 12.1485 50.4542 11.2226 50.1788C10.2968 49.907 9.38503 49.4409 8.45562 48.9184C8.96803 49.8505 9.63947 50.7155 10.5088 51.4498C11.3675 52.1807 12.4666 52.7562 13.6716 53.0033C14.866 53.2575 16.0252 53.2716 17.1525 53.1728C17.2337 53.1657 17.3115 53.1551 17.3928 53.1481C17.2691 53.4729 17.1171 53.7871 16.9475 54.0907C16.3609 55.1111 15.5127 55.9902 14.4915 56.5869C12.4736 57.819 9.79496 57.8473 7.72765 56.714C5.65327 55.5771 4.22206 53.3281 4.17966 50.9556L4.16905 43.8767H10.53H11.0424L11.4488 43.8909C11.7174 43.912 11.986 43.9403 12.251 43.9897C12.7811 44.0886 13.297 44.2474 13.7882 44.4663C14.7706 44.9041 15.6506 45.5785 16.3326 46.4152L19.3752 43.9544C18.308 42.641 16.9298 41.5819 15.3785 40.8934C14.6045 40.5474 13.7882 40.2967 12.9542 40.1414C12.5372 40.0672 12.1167 40.0143 11.6926 39.986L11.0601 39.9648H10.53H2.21129H0.25L0.253537 41.9208L0.271208 51.0897C0.348953 54.8216 2.58588 58.3733 5.85117 60.1422C9.11999 61.9428 13.3005 61.8863 16.4952 59.948C18.0995 59.0088 19.4283 57.639 20.3506 56.029C20.8029 55.2205 21.174 54.3591 21.4002 53.4588C21.5309 53.0104 21.6051 52.5549 21.6687 52.0959C21.7111 51.8665 21.7217 51.637 21.7323 51.404L21.75 51.058L21.7571 50.885L21.7606 50.7967L21.7641 50.7543V50.7331V50.7225C21.7429 50.5178 21.8207 51.1674 21.7147 50.2565ZM20.3859 52.5796C20.34 52.5938 20.2905 52.6079 20.2375 52.622L20.2516 52.6185L20.3435 52.5902L20.3895 52.5761C20.393 52.5761 20.4036 52.5726 20.3859 52.5796Z" fill="white"/>
<defs>
<linearGradient id="paint0_linear_432_28520" x1="54.4064" y1="-4.4595" x2="20.4919" y2="29.0149" gradientUnits="userSpaceOnUse">
<stop stop-color="#A8FFA3"/>
<stop offset="1" stop-color="#A2FF00"/>
</linearGradient>
<linearGradient id="paint1_linear_432_28520" x1="39.4679" y1="10.6754" x2="22.3564" y2="27.5648" gradientUnits="userSpaceOnUse">
<stop stop-color="#3AB306"/>
<stop offset="1" stop-color="#A2FF00"/>
</linearGradient>
<linearGradient id="paint2_linear_432_28520" x1="97.4713" y1="31.0252" x2="86.0068" y2="42.5001" gradientUnits="userSpaceOnUse">
<stop stop-color="#A8FFA3"/>
<stop offset="1" stop-color="#A2FF00"/>
</linearGradient>
<linearGradient id="paint3_linear_432_28520" x1="92.3509" y1="36.141" x2="86.5664" y2="41.9306" gradientUnits="userSpaceOnUse">
<stop stop-color="#3AB306"/>
<stop offset="1" stop-color="#A2FF00"/>
</linearGradient>
</defs>
</svg>
