<svg width="170" height="34" viewBox="0 0 170 34" fill="none" xmlns="http://www.w3.org/2000/svg">
<path d="M140.954 13.3428H135.395V7.85655C135.395 4.90607 137.818 2.51074 140.811 2.51074H146.37V7.99705C146.367 10.9509 143.943 13.3428 140.954 13.3428Z" fill="url(#paint0_linear_428_19000)"/>
<path d="M138.256 13.3429H135.395V10.5192C135.395 8.17189 137.322 6.27002 139.7 6.27002H142.561V9.0937C142.561 11.4411 140.634 13.3429 138.256 13.3429Z" fill="url(#paint1_linear_428_19000)"/>
<path d="M31.9 30.3088H16.3789V14.9911C16.3789 6.74963 23.1499 0.0673828 31.4972 0.0673828H47.0183V15.3851C47.0183 23.63 40.2509 30.3088 31.9 30.3088Z" fill="url(#paint2_linear_428_19000)"/>
<path d="M24.3721 30.3087H16.3789V22.4202C16.3789 15.8682 21.7609 10.5566 28.4 10.5566H36.3931V18.4451C36.3931 24.9971 31.0111 30.3087 24.3721 30.3087Z" fill="url(#paint3_linear_428_19000)"/>
<path d="M21.7052 20.6147V30.3091H11.8822C5.31954 30.3091 0 25.0592 0 18.5826V8.88818H9.82309C16.3857 8.88818 21.7052 14.138 21.7052 20.6147Z" fill="#4E5A70"/>
<path d="M21.709 24.418V30.3087H15.7402C10.1047 30.3087 5.53516 25.799 5.53516 20.2373V14.3467H11.504C17.1395 14.3467 21.709 18.8563 21.709 24.418Z" fill="#20293B"/>
<path d="M78.7496 17.4892V9.72412H74.9023V24.9425H74.944C74.9197 25.2441 74.9023 25.5456 74.9023 25.854V30.5864H78.7496V25.854C78.7496 21.807 82.0865 18.5138 86.1873 18.5138H88.1109V14.717H86.1873C83.34 14.717 80.7392 15.7656 78.7496 17.4892Z" fill="#141D28"/>
<path d="M96.2766 14.7168C91.8425 14.7168 88.2383 18.2772 88.2383 22.6498C88.2383 27.0224 91.846 30.5828 96.2766 30.5828C100.707 30.5828 104.315 27.0224 104.315 22.6498C104.315 18.2772 100.711 14.7168 96.2766 14.7168ZM96.2766 26.7894C93.9641 26.7894 92.0821 24.9321 92.0821 22.6498C92.0821 20.3676 93.9641 18.5103 96.2766 18.5103C98.5892 18.5103 100.471 20.3676 100.471 22.6498C100.471 24.9355 98.5892 26.7894 96.2766 26.7894Z" fill="#141D28"/>
<path d="M143.3 14.7168C138.866 14.7168 135.262 18.2772 135.262 22.6498C135.262 27.0224 138.869 30.5828 143.3 30.5828C147.731 30.5828 151.338 27.0224 151.338 22.6498C151.338 18.2772 147.734 14.7168 143.3 14.7168ZM143.3 26.7894C140.988 26.7894 139.106 24.9321 139.106 22.6498C139.106 20.3676 140.988 18.5103 143.3 18.5103C145.613 18.5103 147.495 20.3676 147.495 22.6498C147.495 24.9355 145.613 26.7894 143.3 26.7894Z" fill="#141D28"/>
<path d="M160.964 14.7168C159.429 14.7168 157.991 15.1451 156.769 15.8853V14.7168H152.922V33.0844H156.769V29.4177C157.991 30.1579 159.425 30.5863 160.964 30.5863C165.398 30.5863 169.002 27.0258 169.002 22.6532C169.002 18.2807 165.394 14.7168 160.964 14.7168ZM160.964 26.7894C158.651 26.7894 156.769 24.9321 156.769 22.6498C156.769 20.3676 158.651 18.5103 160.964 18.5103C163.276 18.5103 165.158 20.3676 165.158 22.6498C165.158 24.9355 163.276 26.7894 160.964 26.7894Z" fill="#141D28"/>
<path d="M131.093 26.3989C130.611 26.8752 129.951 26.8478 129.534 26.6799C129.211 26.5531 128.826 26.279 128.819 25.6896V18.1643C129.906 17.8799 130.951 17.4515 131.896 16.8861C132.649 16.4578 133.333 15.9335 133.93 15.3372C134.528 14.7444 135.031 14.0727 135.396 13.3394C134.639 13.6752 133.913 13.9631 133.194 14.1927C132.475 14.4257 131.76 14.5902 131.055 14.7067C130.302 14.8198 129.555 14.8609 128.819 14.8506V9.7207H124.972V14.4771H124.965L124.972 16.7525V25.7821C125.003 27.7491 126.198 29.4419 128.09 30.1958C128.746 30.4597 129.434 30.5864 130.111 30.5864C131.479 30.5864 132.816 30.0656 133.812 29.0821L135.173 27.7422L132.455 25.059L131.093 26.3989Z" fill="#141D28"/>
<path d="M119.283 25.2987C119.283 26.1212 118.606 26.7894 117.773 26.7894C116.939 26.7894 116.262 26.1212 116.262 25.2987V18.2567H112.415V25.2987C112.415 26.1212 111.738 26.7894 110.905 26.7894C110.071 26.7894 109.394 26.1212 109.394 25.2987V14.7168H105.547V25.2987C105.547 28.2149 107.95 30.5863 110.905 30.5863C112.21 30.5863 113.408 30.1202 114.339 29.3526C115.269 30.1237 116.467 30.5863 117.773 30.5863C120.728 30.5863 123.131 28.2149 123.131 25.2987V14.7168H119.283V25.2987Z" fill="#141D28"/>
<path d="M73.4149 19.7132C73.3697 19.5419 73.2864 19.3123 73.0919 19.0484C72.9044 18.788 72.5642 18.5104 72.1892 18.3836C71.8141 18.25 71.46 18.2534 71.2134 18.2911C71.0884 18.3117 70.9843 18.3391 70.894 18.3665L70.8801 18.3733L70.835 18.3905L70.7481 18.4247L70.5884 18.4864L70.269 18.6132L69.6197 18.8565C69.1891 19.0176 68.7516 19.1821 68.3141 19.3157C67.4425 19.5796 66.5606 19.8263 65.7203 19.9051C64.8904 20.0079 64.0154 19.9051 63.1057 19.6378C62.1959 19.374 61.3001 18.9216 60.3869 18.4145C60.8903 19.3191 61.5501 20.1587 62.4043 20.8715C63.248 21.5808 64.3279 22.1394 65.512 22.3793C66.6856 22.626 67.8245 22.6397 68.9322 22.5438C69.012 22.5369 69.0884 22.5266 69.1683 22.5198C69.0467 22.835 68.8974 23.14 68.7308 23.4347C68.1544 24.4251 67.321 25.2783 66.3175 25.8575C64.3349 27.0534 61.7029 27.0808 59.6716 25.9808C57.6333 24.8774 56.2271 22.6945 56.1854 20.3917L56.175 13.521H62.4251H62.9286L63.3279 13.5347C63.5918 13.5553 63.8557 13.5827 64.1161 13.6307C64.6369 13.7266 65.1439 13.8808 65.6265 14.0933C66.5918 14.5182 67.4564 15.1727 68.1266 15.9849L71.1162 13.5964C70.0676 12.3216 68.7134 11.2936 67.1891 10.6254C66.4286 10.2895 65.6265 10.0462 64.8071 9.89546C64.3973 9.8235 63.9841 9.7721 63.5675 9.74468L62.9459 9.72412H62.4251H54.2513H52.3242L52.3277 11.6226L52.3451 20.5219C52.4214 24.1441 54.6194 27.5914 57.8278 29.3082C61.0396 31.0559 65.1474 31.0011 68.2863 29.1198C69.8627 28.2082 71.1683 26.8786 72.0746 25.316C72.519 24.5313 72.8836 23.6952 73.1058 22.8213C73.2343 22.3861 73.3072 21.9441 73.3697 21.4986C73.4114 21.2758 73.4218 21.0531 73.4322 20.8269L73.4496 20.4911L73.4565 20.3232L73.46 20.2375L73.4635 20.1964V20.1758V20.1656C73.4426 19.9668 73.519 20.5973 73.4149 19.7132ZM72.1093 21.9681C72.0641 21.9818 72.0155 21.9955 71.9634 22.0092L71.9773 22.0057L72.0676 21.9783L72.1128 21.9646C72.1162 21.9646 72.1266 21.9612 72.1093 21.9681Z" fill="#141D28"/>
<path d="M31.9138 30.4998H16.293V15.0853C16.293 6.79182 23.1074 0.0673828 31.5085 0.0673828H47.1293V15.4819C47.1293 23.7788 40.3184 30.4998 31.9138 30.4998Z" fill="url(#paint4_linear_428_19000)"/>
<path d="M24.3077 30.5H16.293V22.5903C16.293 16.0206 21.6895 10.6948 28.3464 10.6948H36.3611V18.6045C36.3611 25.1742 30.9646 30.5 24.3077 30.5Z" fill="url(#paint5_linear_428_19000)"/>
<path d="M21.6732 20.6625V30.5001H11.9265C5.41491 30.5001 0.136719 25.1727 0.136719 18.6004V8.7627H9.88345C16.3951 8.7627 21.6732 14.0901 21.6732 20.6625Z" fill="#4E5A70"/>
<path d="M21.6758 24.617V30.4998H15.7149C10.0869 30.4998 5.52344 25.9962 5.52344 20.4419V14.5591H11.4844C17.1124 14.5591 21.6758 19.0627 21.6758 24.617Z" fill="#20293B"/>
<defs>
<linearGradient id="paint0_linear_428_19000" x1="147.852" y1="1.04712" x2="136.726" y2="12.3211" gradientUnits="userSpaceOnUse">
<stop stop-color="#A8FFA3"/>
<stop offset="1" stop-color="#A2FF00"/>
</linearGradient>
<linearGradient id="paint1_linear_428_19000" x1="142.821" y1="6.01253" x2="137.207" y2="11.7008" gradientUnits="userSpaceOnUse">
<stop stop-color="#3AB306"/>
<stop offset="1" stop-color="#A2FF00"/>
</linearGradient>
<linearGradient id="paint2_linear_428_19000" x1="51.1626" y1="-4.01722" x2="20.0992" y2="27.4585" gradientUnits="userSpaceOnUse">
<stop stop-color="#A8FFA3"/>
<stop offset="1" stop-color="#A2FF00"/>
</linearGradient>
<linearGradient id="paint3_linear_428_19000" x1="37.116" y1="9.84517" x2="21.4431" y2="25.7261" gradientUnits="userSpaceOnUse">
<stop stop-color="#3AB306"/>
<stop offset="1" stop-color="#A2FF00"/>
</linearGradient>
<linearGradient id="paint4_linear_428_19000" x1="51.3003" y1="-4.04301" x2="20.0408" y2="27.635" gradientUnits="userSpaceOnUse">
<stop stop-color="#A8FFA3"/>
<stop offset="1" stop-color="#A2FF00"/>
</linearGradient>
<linearGradient id="paint5_linear_428_19000" x1="37.0859" y1="9.98144" x2="21.3708" y2="25.9052" gradientUnits="userSpaceOnUse">
<stop stop-color="#3AB306"/>
<stop offset="1" stop-color="#A2FF00"/>
</linearGradient>
</defs>
</svg>
