<svg width="345" height="68" viewBox="0 0 345 68" fill="none" xmlns="http://www.w3.org/2000/svg">
<path d="M287.741 27.3412H276.393V16.042C276.393 9.96537 281.34 5.0321 287.45 5.0321H298.799V16.3313C298.791 22.415 293.844 27.3412 287.741 27.3412Z" fill="url(#paint0_linear_397_15999)"/>
<path d="M282.233 27.3411H276.393V21.5257C276.393 16.6912 280.327 12.7742 285.182 12.7742H291.023V18.5897C291.023 23.4242 287.089 27.3411 282.233 27.3411Z" fill="url(#paint1_linear_397_15999)"/>
<path d="M65.1128 62.2833H33.4282V30.7359C33.4282 13.7623 47.2503 0 64.2905 0H95.9751V31.5475C95.9751 48.5281 82.16 62.2833 65.1128 62.2833Z" fill="url(#paint2_linear_397_15999)"/>
<path d="M49.7454 62.2834H33.4282V46.0368C33.4282 32.5426 44.415 21.6033 57.9678 21.6033H74.285V37.8499C74.285 51.3441 63.2982 62.2834 49.7454 62.2834Z" fill="url(#paint3_linear_397_15999)"/>
<path d="M44.3087 42.3174V62.2833H24.256C10.8592 62.2833 0 51.4711 0 38.1322V18.1663H20.0527C33.4495 18.1663 44.3087 28.9785 44.3087 42.3174Z" fill="#4E5A70"/>
<path d="M44.3086 50.1514V62.2834H32.1239C20.6197 62.2834 11.2915 52.9956 11.2915 41.5411V29.4091H23.4762C34.9805 29.4091 44.3086 38.6969 44.3086 50.1514Z" fill="#20293B"/>
<path d="M160.755 35.8808V19.8883H152.901V51.2311H152.986C152.936 51.8522 152.901 52.4733 152.901 53.1084V62.855H160.755V53.1084C160.755 44.7734 167.566 37.9911 175.938 37.9911H179.865V30.1712H175.938C170.125 30.1712 164.816 32.3309 160.755 35.8808Z" fill="white"/>
<path d="M196.543 30.1713C187.491 30.1713 180.134 37.5042 180.134 46.5097C180.134 55.5152 187.498 62.848 196.543 62.848C205.588 62.848 212.952 55.5152 212.952 46.5097C212.952 37.5042 205.595 30.1713 196.543 30.1713ZM196.543 55.0353C191.822 55.0353 187.981 51.21 187.981 46.5097C187.981 41.8093 191.822 37.9841 196.543 37.9841C201.264 37.9841 205.106 41.8093 205.106 46.5097C205.106 51.2171 201.264 55.0353 196.543 55.0353Z" fill="white"/>
<path d="M292.532 30.1713C283.481 30.1713 276.123 37.5042 276.123 46.5097C276.123 55.5152 283.488 62.848 292.532 62.848C301.577 62.848 308.942 55.5152 308.942 46.5097C308.942 37.5042 301.584 30.1713 292.532 30.1713ZM292.532 55.0353C287.812 55.0353 283.97 51.21 283.97 46.5097C283.97 41.8093 287.812 37.9841 292.532 37.9841C297.253 37.9841 301.095 41.8093 301.095 46.5097C301.095 51.2171 297.253 55.0353 292.532 55.0353Z" fill="white"/>
<path d="M328.591 30.1713C325.458 30.1713 322.523 31.0535 320.028 32.578V30.1713H312.174V68.0001H320.028V60.4484C322.523 61.9729 325.451 62.8551 328.591 62.8551C337.642 62.8551 345 55.5222 345 46.5167C345 37.5112 337.635 30.1713 328.591 30.1713ZM328.591 55.0353C323.87 55.0353 320.028 51.21 320.028 46.5097C320.028 41.8093 323.87 37.9841 328.591 37.9841C333.311 37.9841 337.153 41.8093 337.153 46.5097C337.153 51.2171 333.311 55.0353 328.591 55.0353Z" fill="white"/>
<path d="M267.61 54.2306C266.625 55.2116 265.278 55.1551 264.428 54.8093C263.769 54.5482 262.982 53.9836 262.968 52.7697V37.2712C265.186 36.6854 267.32 35.8032 269.248 34.6387C270.786 33.7565 272.182 32.6767 273.402 31.4486C274.621 30.2277 275.648 28.8444 276.393 27.3341C274.848 28.0257 273.366 28.6185 271.899 29.0914C270.432 29.5713 268.971 29.9101 267.532 30.15C265.994 30.3829 264.47 30.4676 262.968 30.4465V19.8812H255.114V29.6772H255.1L255.114 34.3634V52.9602C255.178 57.0113 257.616 60.4977 261.479 62.0504C262.819 62.5938 264.222 62.855 265.604 62.855C268.397 62.855 271.126 61.7822 273.16 59.7567L275.939 56.9972L270.389 51.4711L267.61 54.2306Z" fill="white"/>
<path d="M243.503 51.9652C243.503 53.659 242.121 55.0353 240.42 55.0353C238.719 55.0353 237.336 53.659 237.336 51.9652V37.4618H229.482V51.9652C229.482 53.659 228.1 55.0353 226.399 55.0353C224.698 55.0353 223.316 53.659 223.316 51.9652V30.1713H215.462V51.9652C215.462 57.9712 220.367 62.8551 226.399 62.8551C229.064 62.8551 231.51 61.8952 233.409 60.3143C235.309 61.9023 237.755 62.8551 240.42 62.8551C246.452 62.8551 251.357 57.9712 251.357 51.9652V30.1713H243.503V51.9652V51.9652Z" fill="white"/>
<path d="M149.867 40.4612C149.775 40.1083 149.605 39.6355 149.208 39.092C148.825 38.5557 148.13 37.984 147.365 37.7229C146.599 37.4476 145.876 37.4547 145.373 37.5323C145.118 37.5747 144.905 37.6311 144.721 37.6876L144.693 37.7017L144.601 37.737L144.423 37.8076L144.097 37.9346L143.445 38.1957L142.12 38.6968C141.241 39.0285 140.348 39.3673 139.454 39.6425C137.675 40.186 135.875 40.6941 134.16 40.8564C132.465 41.0682 130.679 40.8564 128.822 40.306C126.965 39.7625 125.136 38.8309 123.272 37.7864C124.3 39.6496 125.647 41.3787 127.39 42.8467C129.113 44.3076 131.317 45.458 133.734 45.952C136.13 46.4602 138.455 46.4884 140.716 46.2908C140.879 46.2767 141.035 46.2555 141.198 46.2414C140.95 46.8907 140.645 47.5188 140.305 48.1258C139.128 50.1654 137.427 51.9228 135.379 53.1155C131.331 55.5786 125.958 55.6351 121.812 53.3696C117.651 51.097 114.78 46.6013 114.695 41.8586L114.674 27.7081H127.433H128.461L129.276 27.7364C129.814 27.7787 130.353 27.8352 130.885 27.934C131.948 28.1316 132.983 28.4492 133.968 28.8867C135.939 29.7619 137.704 31.1099 139.072 32.7825L145.175 27.8634C143.034 25.238 140.27 23.1207 137.158 21.7445C135.606 21.0528 133.968 20.5517 132.295 20.2412C131.459 20.093 130.615 19.9871 129.765 19.9306L128.496 19.8883H127.433H110.747H106.813L106.82 23.7982L106.856 42.1268C107.011 49.5867 111.498 56.6866 118.048 60.2225C124.605 63.8219 132.99 63.709 139.398 59.8343C142.616 57.957 145.281 55.2187 147.131 52.0004C148.038 50.3842 148.783 48.6621 149.236 46.8625C149.499 45.9661 149.647 45.0557 149.775 44.1382C149.86 43.6795 149.881 43.2207 149.903 42.7549L149.938 42.0633L149.952 41.7175L149.959 41.541L149.966 41.4563V41.414V41.3928C149.924 40.9835 150.08 42.2821 149.867 40.4612ZM147.202 45.1051C147.11 45.1334 147.011 45.1616 146.904 45.1898L146.933 45.1828L147.117 45.1263L147.209 45.0981C147.216 45.0981 147.237 45.091 147.202 45.1051Z" fill="white"/>
<path d="M65.1412 62.6771H33.2529V30.9304C33.2529 13.8497 47.1639 0.000427246 64.3136 0.000427246H96.2018V31.7471C96.2018 48.8349 82.298 62.6771 65.1412 62.6771Z" fill="url(#paint4_linear_397_15999)"/>
<path d="M49.614 62.6771H33.2529V46.3867C33.2529 32.8562 44.2693 21.8875 57.8586 21.8875H74.2197V38.1778C74.2197 51.7083 63.2033 62.6771 49.614 62.6771Z" fill="url(#paint5_linear_397_15999)"/>
<path d="M44.2441 42.416V62.677H24.3473C11.0546 62.677 0.279785 51.705 0.279785 38.169V17.908H20.1766C33.4693 17.908 44.2441 28.88 44.2441 42.416Z" fill="#4E5A70"/>
<path d="M44.2442 50.5612V62.6771H32.0757C20.5868 62.6771 11.271 53.4016 11.271 41.9623V29.8464H23.4395C34.9285 29.8464 44.2442 39.1219 44.2442 50.5612Z" fill="#20293B"/>
<defs>
<linearGradient id="paint0_linear_397_15999" x1="301.823" y1="2.01773" x2="278.906" y2="25.0341" gradientUnits="userSpaceOnUse">
<stop stop-color="#A8FFA3"/>
<stop offset="1" stop-color="#A2FF00"/>
</linearGradient>
<linearGradient id="paint1_linear_397_15999" x1="291.552" y1="12.2439" x2="279.99" y2="23.8567" gradientUnits="userSpaceOnUse">
<stop stop-color="#3AB306"/>
<stop offset="1" stop-color="#A2FF00"/>
</linearGradient>
<linearGradient id="paint2_linear_397_15999" x1="104.435" y1="-8.41238" x2="40.454" y2="55.8467" gradientUnits="userSpaceOnUse">
<stop stop-color="#A8FFA3"/>
<stop offset="1" stop-color="#A2FF00"/>
</linearGradient>
<linearGradient id="paint3_linear_397_15999" x1="75.7606" y1="20.138" x2="43.4792" y2="52.5597" gradientUnits="userSpaceOnUse">
<stop stop-color="#3AB306"/>
<stop offset="1" stop-color="#A2FF00"/>
</linearGradient>
<linearGradient id="paint4_linear_397_15999" x1="104.716" y1="-8.46508" x2="40.3312" y2="56.207" gradientUnits="userSpaceOnUse">
<stop stop-color="#A8FFA3"/>
<stop offset="1" stop-color="#A2FF00"/>
</linearGradient>
<linearGradient id="paint5_linear_397_15999" x1="75.6993" y1="20.4183" x2="43.3309" y2="52.9273" gradientUnits="userSpaceOnUse">
<stop stop-color="#3AB306"/>
<stop offset="1" stop-color="#A2FF00"/>
</linearGradient>
</defs>
</svg>
