<?xml version="1.0" encoding="UTF-8" ?>
<!DOCTYPE svg PUBLIC "-//W3C//DTD SVG 1.1//EN" "http://www.w3.org/Graphics/SVG/1.1/DTD/svg11.dtd">
<svg width="512pt" height="512pt" viewBox="0 0 512 512" version="1.1" xmlns="http://www.w3.org/2000/svg">
<g id="#ffffffff">
<path fill="#ffffff" opacity="1.00" d=" M 99.52 0.00 L 100.67 0.00 C 114.36 0.36 127.82 5.79 137.68 15.34 C 158.98 36.71 180.34 58.01 201.67 79.36 C 206.57 84.20 211.59 89.09 214.99 95.16 C 222.59 108.19 223.52 124.84 217.37 138.62 C 212.44 150.29 202.36 159.57 190.35 163.58 C 180.36 167.09 171.25 173.40 165.26 182.22 C 158.66 191.33 155.62 202.99 157.24 214.16 C 162.66 240.35 177.26 263.58 194.20 283.87 C 208.57 300.84 224.96 316.13 243.15 328.95 C 257.18 338.73 272.34 347.30 288.87 352.04 C 308.03 357.49 330.23 349.85 341.62 333.45 C 346.92 326.42 348.25 317.31 353.32 310.15 C 362.73 296.08 380.36 288.46 397.07 290.30 C 408.43 291.28 419.12 296.75 427.10 304.82 C 447.32 324.97 467.48 345.19 487.68 365.37 C 492.81 370.59 498.29 375.52 502.68 381.42 C 511.27 393.44 513.44 409.49 509.31 423.57 C 507.11 431.88 502.60 439.45 496.89 445.83 C 482.53 460.19 468.16 474.54 453.81 488.91 C 449.07 493.74 444.13 498.51 438.21 501.91 C 426.58 508.90 412.90 511.53 399.49 512.00 L 394.53 512.00 C 371.23 511.13 348.47 504.84 326.84 496.43 C 293.18 483.12 261.88 464.48 232.32 443.72 C 175.42 402.84 124.69 353.44 81.88 297.99 C 57.59 265.75 35.72 231.40 19.90 194.15 C 10.92 173.04 4.10 150.88 1.34 128.05 C -0.20 113.16 0.35 97.74 5.35 83.50 C 8.34 74.93 13.19 67.01 19.61 60.58 C 34.94 45.26 50.28 29.93 65.62 14.60 C 69.38 11.23 73.19 7.74 77.81 5.57 C 84.43 1.88 92.03 0.51 99.52 0.00 Z" />
</g>
</svg>
