<svg xmlns="http://www.w3.org/2000/svg" viewBox="0 0 437.49 437.39"><defs><style>.cls-1{fill:#ffffff;opacity:1;isolation:isolate;}</style></defs><title>play</title><g id="Слой_2" data-name="Слой 2"><g id="Слой_1-2" data-name="Слой 1"><path class="cls-1" d="M151.84,10.53a218.44,218.44,0,0,1,230.81,63.4,225.26,225.26,0,0,1,34.58,52.66c1.13,2.72,2.25,5.46,3.52,8.12.5,1.24.95,2.5,1.44,3.76,8,20.92,13.5,42.93,14.64,65.34,2.82,33.58-3.5,67.6-16,98.79-1.24,2.68-2.42,5.38-3.57,8.09a219.77,219.77,0,0,1-70.66,85.51A214.92,214.92,0,0,1,286,426.78c-1,.34-2,.69-3,1.05-2.33.64-4.68,1.24-7,2a220.06,220.06,0,0,1-133.18-5.95C93.75,406,51.8,369.58,26.74,323.73c-8.53-16.17-15.69-33.15-20-51-1.15-4.31-1.95-8.69-2.89-13A229.93,229.93,0,0,1,0,220.65c-.07-7.35.44-14.74.84-22.1,1-7,1.63-14,3-21,.78-3,1.31-6,1.89-9.06a220.52,220.52,0,0,1,19.43-51.78C51.35,66.63,97.85,27.46,151.84,10.53m38.22,26.29c-20.44,2.94-40.14,10-58.41,19.54C95,76,65.18,108.34,49.22,146.79c-.92,1.86-1.65,3.81-2.39,5.75a189.52,189.52,0,0,0-10.63,41.1A183.11,183.11,0,0,0,46.8,284.8c1.85,4.69,3.78,9.34,5.93,13.91,19.22,39.86,53.15,72.44,94,89.5,16,6.7,33,11.7,50.34,13.27,4.48,1.18,9.19.53,13.73,1.4,6.29.15,12.69.56,18.93-.43,3.35-.36,6.83.1,10.08-1,19.49-1.66,38.46-7.61,56.22-15.67,2-1,4-1.89,6-2.9a27.28,27.28,0,0,1,3.93-2,197.74,197.74,0,0,0,19.12-12,184.48,184.48,0,0,0,69.67-96.39A163.68,163.68,0,0,0,400,250.72c.22-1.44.41-2.88.63-4.31,1-2.83.33-5.94,1.37-8.75a296.31,296.31,0,0,0,.27-35,15.78,15.78,0,0,0-.61-3.8c-.23-2-.38-4.09-.56-6.14a33.71,33.71,0,0,1-1.08-6.15c-.73-3.6-1.24-7.24-2.3-10.76-12.3-53-49.73-99.44-98.85-122.9C284,45.92,268.29,40.32,252,37.55a94.42,94.42,0,0,0-12.16-1.73c-3.64-.86-7.4-.57-11.09-.87-6-1.22-12.16-.29-18.22-.58l-.11.66A102.12,102.12,0,0,0,190.06,36.82Z"/><path class="cls-1" d="M155,123.72a28.56,28.56,0,0,1,23.89,2q57,33,114.08,65.88c5.59,3.07,11.38,6.46,14.79,12.06,2.42,3.23,3.18,7.23,4.35,11a37.07,37.07,0,0,1,0,8c-.95,2.49-1.26,5.2-2.46,7.61a28.82,28.82,0,0,1-12.23,12.89Q237.81,277.59,178.21,312A28.65,28.65,0,0,1,158,314.66c-11.51-2.94-21-13.9-20.7-26q-.09-67,0-133.95c.11-4.73-.43-9.65,1.33-14.15A28.55,28.55,0,0,1,155,123.72Z"/></g></g></svg>