<?xml version="1.0" encoding="UTF-8" ?>
<!DOCTYPE svg PUBLIC "-//W3C//DTD SVG 1.1//EN" "http://www.w3.org/Graphics/SVG/1.1/DTD/svg11.dtd">
<svg width="512pt" height="512pt" viewBox="0 0 512 512" version="1.1" xmlns="http://www.w3.org/2000/svg">
<g id="#141d28ff">
<path fill="#141d28" opacity="1.00" d=" M 250.87 0.00 L 253.76 0.00 C 276.15 0.34 298.63 6.24 317.50 18.49 C 342.79 34.74 362.86 59.83 371.00 88.98 C 378.33 115.92 377.03 145.41 366.25 171.26 C 350.14 208.60 315.07 237.95 274.65 244.69 C 246.63 249.35 216.72 245.37 191.97 231.03 C 175.26 221.41 160.87 207.89 149.87 192.09 C 122.16 152.03 122.10 94.90 149.71 54.78 C 160.15 39.77 173.57 26.74 189.22 17.25 C 207.61 5.78 229.31 0.38 250.87 0.00 Z" />
<path fill="#141d28" opacity="1.00" d=" M 104.42 260.49 C 119.62 251.52 137.36 247.21 154.97 247.41 C 158.73 247.46 162.30 248.83 165.61 250.51 C 181.99 259.24 196.17 272.12 214.02 277.99 C 231.34 285.14 250.50 288.15 269.12 285.57 C 282.06 283.99 294.36 279.39 306.28 274.31 C 320.57 267.42 332.81 257.00 346.94 249.82 C 353.14 246.50 360.34 247.34 367.06 247.88 C 387.10 249.67 406.70 257.76 421.56 271.43 C 434.78 283.59 443.98 299.39 451.06 315.73 C 461.38 341.00 466.01 368.21 468.20 395.30 C 469.16 415.39 470.89 436.16 464.38 455.58 C 458.29 474.78 444.38 491.22 426.67 500.75 C 412.92 508.36 397.16 511.51 381.57 512.00 L 130.40 512.00 C 122.68 511.73 114.95 511.02 107.41 509.30 C 91.45 505.79 76.42 497.79 65.05 486.00 C 54.36 475.06 47.20 460.85 44.21 445.89 C 41.36 432.44 41.96 418.60 42.44 404.96 C 43.25 384.11 46.23 363.35 51.13 343.07 C 54.49 330.21 58.64 317.46 64.87 305.69 C 73.62 287.46 86.73 270.73 104.42 260.49 Z" />
</g>
</svg>
