<?xml version="1.0" encoding="UTF-8" ?>
<!DOCTYPE svg PUBLIC "-//W3C//DTD SVG 1.1//EN" "http://www.w3.org/Graphics/SVG/1.1/DTD/svg11.dtd">
<svg width="512pt" height="512pt" viewBox="0 0 512 512" version="1.1" xmlns="http://www.w3.org/2000/svg">
<g id="#ffffffff">
<path fill="#ffffff" opacity="1.00" d=" M 100.36 0.00 L 411.58 0.00 C 436.87 0.15 461.91 10.22 480.19 27.70 C 500.05 46.28 511.82 73.10 512.00 100.31 L 512.00 412.46 C 511.60 433.65 504.42 454.64 491.61 471.52 C 473.10 496.44 442.68 511.90 411.62 512.00 L 98.86 512.00 C 74.32 511.40 50.17 501.56 32.29 484.73 C 12.54 466.54 0.69 440.23 0.00 413.39 L 0.00 99.47 C 0.40 72.80 11.92 46.56 31.27 28.22 C 49.61 10.49 74.84 0.15 100.36 0.00 M 91.50 32.70 C 73.45 35.19 56.65 45.26 45.80 59.88 C 36.94 71.64 32.02 86.29 32.01 101.02 C 31.99 202.68 32.01 304.34 32.00 406.00 C 31.95 411.32 32.01 416.68 32.93 421.94 C 35.44 437.56 43.59 452.17 55.47 462.59 C 67.88 473.65 84.37 479.97 101.00 479.99 C 204.02 480.01 307.04 479.99 410.06 480.00 C 424.39 480.11 438.75 475.71 450.44 467.40 C 465.23 457.09 475.73 440.81 478.87 423.05 C 480.35 415.45 479.95 407.68 480.00 399.98 C 480.00 304.98 480.00 209.97 480.00 114.96 C 479.91 104.93 480.60 94.72 478.02 84.91 C 472.86 63.15 456.42 44.51 435.51 36.61 C 427.41 33.47 418.71 31.95 410.03 32.00 C 307.33 32.00 204.64 32.00 101.95 32.00 C 98.45 32.00 94.96 32.20 91.50 32.70 Z" />
<path fill="#ffffff" opacity="1.00" d=" M 382.48 84.70 C 391.64 82.57 401.62 83.67 409.93 88.17 C 417.35 92.14 423.23 98.90 426.12 106.80 C 430.31 118.20 428.99 131.69 421.98 141.70 C 416.92 149.08 408.90 154.25 400.18 156.11 C 386.62 159.20 371.24 154.59 362.58 143.48 C 351.30 129.42 352.34 106.98 365.23 94.27 C 369.93 89.54 375.99 86.21 382.48 84.70 M 389.43 116.49 C 385.54 117.59 386.01 124.26 389.92 124.97 C 393.23 125.53 397.65 122.91 397.02 119.15 C 396.10 115.90 392.13 115.62 389.43 116.49 Z" />
<path fill="#ffffff" opacity="1.00" d=" M 253.17 125.29 C 281.24 124.57 309.43 133.29 332.17 149.77 C 357.30 167.78 375.77 194.90 383.02 224.98 C 389.95 253.15 387.15 283.63 375.05 310.01 C 362.74 337.18 340.84 359.85 314.13 373.10 C 291.05 384.69 264.47 389.02 238.89 385.63 C 209.65 381.85 181.93 367.70 161.61 346.36 C 142.24 326.27 129.58 299.82 126.24 272.10 C 122.79 244.65 128.31 216.13 141.98 192.05 C 155.76 167.48 177.67 147.57 203.49 136.28 C 219.10 129.36 236.10 125.63 253.17 125.29 M 250.28 157.40 C 226.81 158.67 203.96 168.78 187.18 185.24 C 172.86 199.09 162.87 217.37 159.09 236.94 C 154.67 259.22 158.22 283.00 169.13 302.94 C 180.74 324.50 200.64 341.41 223.81 349.35 C 245.27 356.85 269.33 356.49 290.61 348.51 C 313.46 339.98 332.87 322.65 343.93 300.91 C 354.81 279.86 357.61 254.82 351.77 231.87 C 346.11 209.14 331.97 188.68 312.80 175.24 C 294.80 162.39 272.34 156.09 250.28 157.40 Z" />
</g>
</svg>
