<?xml version="1.0" encoding="UTF-8" ?>
<!DOCTYPE svg PUBLIC "-//W3C//DTD SVG 1.1//EN" "http://www.w3.org/Graphics/SVG/1.1/DTD/svg11.dtd">
<svg width="512pt" height="512pt" viewBox="0 0 512 512" version="1.1" xmlns="http://www.w3.org/2000/svg">
<g id="#079d66ff">
<path fill="#079d66" opacity="1.00" d=" M 95.99 0.00 L 415.60 0.00 C 439.30 1.35 462.49 10.93 479.76 27.29 C 499.05 45.08 510.68 70.58 512.00 96.75 L 512.00 413.49 C 511.23 444.85 494.93 475.25 469.26 493.27 C 453.55 504.61 434.51 510.89 415.22 512.00 L 97.74 512.00 C 72.86 511.05 48.48 500.70 30.71 483.23 C 12.46 465.72 1.54 441.17 0.00 415.98 L 0.00 96.37 C 1.40 71.27 12.18 46.79 30.23 29.23 C 47.63 11.87 71.51 1.52 95.99 0.00 M 96.13 32.20 C 79.51 33.37 63.46 40.89 51.85 52.83 C 39.31 65.50 31.98 83.17 32.01 101.01 C 31.99 204.35 31.99 307.69 32.01 411.03 C 31.99 430.03 40.34 448.80 54.37 461.60 C 66.89 473.24 83.85 479.97 100.96 479.99 C 204.30 480.01 307.65 480.01 410.99 479.99 C 427.63 479.96 444.14 473.66 456.55 462.58 C 471.21 449.74 480.01 430.50 479.99 410.99 C 480.01 307.98 479.99 204.97 480.00 101.96 C 480.04 93.57 478.62 85.16 475.69 77.30 C 467.94 55.99 449.10 39.15 427.01 33.95 C 417.23 31.39 407.05 32.09 397.05 32.00 C 300.36 32.00 203.67 32.00 106.99 32.00 C 103.37 32.00 99.74 31.94 96.13 32.20 Z" />
<path fill="#079d66" opacity="1.00" d=" M 382.48 84.70 C 396.92 81.14 413.55 86.47 422.04 98.96 C 432.14 113.43 430.29 135.16 417.22 147.23 C 403.48 160.34 379.62 160.25 365.93 147.13 C 352.96 135.12 351.22 113.52 361.19 99.14 C 366.14 91.87 373.93 86.68 382.48 84.70 M 389.38 116.50 C 385.49 117.65 386.06 124.44 390.04 124.97 C 393.33 125.49 397.82 122.77 396.95 119.04 C 396.02 115.84 392.03 115.65 389.38 116.50 Z" />
<path fill="#079d66" opacity="1.00" d=" M 247.38 125.53 C 274.20 123.72 301.56 130.38 324.40 144.60 C 349.58 160.05 369.28 184.26 379.16 212.11 C 389.27 240.22 389.26 271.83 379.14 299.93 C 369.41 327.32 350.19 351.16 325.60 366.64 C 302.15 381.56 273.81 388.53 246.11 386.37 C 218.55 384.37 191.81 373.20 170.90 355.17 C 148.51 336.03 132.84 309.15 127.49 280.16 C 122.63 254.34 125.71 227.06 136.44 203.07 C 149.27 174.02 173.06 150.00 202.01 136.94 C 216.27 130.41 231.74 126.56 247.38 125.53 M 249.27 157.47 C 227.34 158.88 206.03 168.00 189.79 182.78 C 174.35 196.69 163.44 215.57 159.28 235.96 C 154.62 258.28 157.98 282.20 168.79 302.30 C 180.45 324.34 200.74 341.61 224.38 349.55 C 245.91 356.92 269.98 356.41 291.22 348.28 C 314.02 339.59 333.32 322.14 344.23 300.31 C 354.85 279.41 357.54 254.67 351.79 231.95 C 346.20 209.43 332.30 189.13 313.41 175.68 C 295.03 162.34 271.90 155.87 249.27 157.47 Z" />
</g>
</svg>
