<?xml version="1.0" encoding="UTF-8" ?>
<!DOCTYPE svg PUBLIC "-//W3C//DTD SVG 1.1//EN" "http://www.w3.org/Graphics/SVG/1.1/DTD/svg11.dtd">
<svg width="512pt" height="512pt" viewBox="0 0 512 512" version="1.1" xmlns="http://www.w3.org/2000/svg">
<g id="#ffffffff">
<path fill="#ffffff" opacity="1.00" d=" M 492.18 34.43 C 500.58 30.30 511.28 36.60 512.00 45.86 L 512.00 46.44 C 510.64 57.09 507.82 67.52 505.83 78.07 C 478.86 207.76 451.93 337.46 424.93 467.14 C 423.70 476.72 411.46 482.25 403.57 476.51 C 363.64 447.79 323.95 418.70 284.05 389.92 C 276.98 384.78 266.59 385.42 260.05 391.15 C 238.55 408.65 217.08 426.19 195.58 443.69 C 192.67 446.15 188.92 447.80 185.05 447.44 C 179.08 447.16 173.89 442.59 172.42 436.87 C 157.28 388.23 142.17 339.57 127.04 290.92 C 87.72 276.18 48.33 261.64 9.05 246.82 C 2.10 244.37 -1.73 236.02 0.87 229.14 C 2.25 224.84 6.05 221.90 10.15 220.37 C 170.82 158.39 331.49 96.39 492.18 34.43 M 395.55 125.66 C 318.83 172.89 242.13 220.13 165.44 267.41 C 156.47 272.70 152.14 284.36 155.39 294.25 C 163.61 323.12 171.80 351.99 180.06 380.85 C 180.76 384.34 184.82 386.48 188.08 385.00 C 190.57 384.18 191.74 381.51 191.92 379.07 C 193.89 364.40 195.88 349.74 197.83 335.07 C 198.50 330.14 199.60 325.23 201.75 320.72 C 205.61 312.12 213.23 306.27 219.88 299.94 C 279.33 244.69 338.76 189.42 398.21 134.18 C 399.51 132.86 401.24 131.75 401.89 129.93 C 402.72 126.54 398.41 123.28 395.55 125.66 Z" />
</g>
</svg>
