<?xml version="1.0" encoding="UTF-8" ?>
<!DOCTYPE svg PUBLIC "-//W3C//DTD SVG 1.1//EN" "http://www.w3.org/Graphics/SVG/1.1/DTD/svg11.dtd">
<svg width="512pt" height="512pt" viewBox="0 0 512 512" version="1.1" xmlns="http://www.w3.org/2000/svg">
<g id="#079d66ff">
<path fill="#079d66" opacity="1.00" d=" M 493.72 33.93 C 501.99 30.77 511.55 37.50 512.00 46.19 L 512.00 46.57 C 510.00 60.14 506.57 73.47 503.98 86.94 C 478.00 211.96 452.00 336.98 426.02 462.01 C 425.27 465.39 424.86 468.94 423.13 472.01 C 420.20 477.08 413.85 479.88 408.14 478.49 C 404.36 477.60 401.37 474.96 398.28 472.77 C 360.39 445.28 322.52 417.76 284.62 390.30 C 279.69 386.61 273.05 385.41 267.17 387.25 C 262.66 388.52 259.24 391.86 255.68 394.71 C 235.47 411.16 215.31 427.66 195.08 444.08 C 190.61 447.96 183.68 448.62 178.67 445.39 C 175.51 443.54 173.46 440.30 172.42 436.86 C 157.26 388.21 142.19 339.54 127.01 290.90 C 89.41 276.87 51.82 262.83 14.22 248.82 C 10.53 247.40 6.49 246.23 3.73 243.23 C 1.41 240.86 0.38 237.56 0.00 234.33 L 0.00 233.30 C 0.32 229.67 1.75 226.03 4.56 223.61 C 7.61 221.00 11.56 219.86 15.22 218.41 C 162.00 161.79 308.77 105.17 455.55 48.55 C 468.28 43.71 480.93 38.61 493.72 33.93 M 396.17 125.35 C 319.57 172.31 243.14 219.59 166.60 266.67 C 160.17 270.23 155.47 276.76 154.55 284.09 C 153.70 289.25 155.37 294.33 156.80 299.23 C 164.46 326.12 172.11 353.02 179.77 379.92 C 180.31 381.85 181.18 384.02 183.19 384.85 C 186.70 386.72 191.45 384.16 191.73 380.17 C 194.04 364.08 195.99 347.94 198.35 331.86 C 199.68 322.74 204.38 314.31 211.14 308.08 C 274.17 249.45 337.25 190.87 400.28 132.23 C 404.29 129.71 400.24 122.89 396.17 125.35 Z" />
</g>
</svg>
