<?xml version="1.0" encoding="UTF-8" ?>
<!DOCTYPE svg PUBLIC "-//W3C//DTD SVG 1.1//EN" "http://www.w3.org/Graphics/SVG/1.1/DTD/svg11.dtd">
<svg width="512pt" height="512pt" viewBox="0 0 512 512" version="1.1" xmlns="http://www.w3.org/2000/svg">
<g id="#ffffffff">
<path fill="#ffffff" opacity="1.00" d=" M 190.48 113.73 C 208.75 110.01 227.49 110.06 246.06 110.00 C 259.01 110.63 272.19 110.63 284.76 114.19 C 290.41 115.73 295.77 119.58 297.37 125.46 C 301.05 134.15 300.45 143.73 300.27 152.95 C 299.56 176.29 298.92 199.63 298.73 222.97 C 299.28 230.23 299.24 237.90 302.67 244.52 C 304.86 248.75 308.94 252.60 314.04 252.24 C 318.36 251.68 321.41 248.15 324.53 245.44 C 334.57 236.97 341.80 225.84 348.98 214.98 C 361.62 195.90 372.70 175.78 381.93 154.83 C 385.45 147.51 388.00 139.78 391.49 132.45 C 393.72 127.58 398.41 123.53 404.06 123.92 C 431.02 123.58 458.00 123.59 484.96 123.26 C 492.72 122.62 501.24 122.54 508.00 126.97 C 510.96 128.84 511.72 132.43 512.00 135.67 L 512.00 136.20 C 511.21 144.91 507.45 152.93 503.53 160.62 C 488.34 188.97 467.56 213.69 448.49 239.43 C 442.68 247.43 436.28 255.08 431.58 263.82 C 429.42 267.81 428.07 272.40 428.65 276.96 C 429.32 282.07 432.03 286.71 435.44 290.48 C 449.73 306.22 466.36 319.65 480.55 335.48 C 491.18 346.72 500.96 358.87 508.57 372.36 C 510.95 378.33 512.81 385.33 510.34 391.56 C 507.41 395.95 502.39 398.92 497.19 399.71 C 487.84 401.02 478.38 400.58 468.98 400.87 C 450.98 401.27 432.95 401.14 414.96 401.98 C 404.77 401.01 395.03 396.96 386.55 391.32 C 372.95 381.44 362.47 368.12 351.31 355.72 C 346.83 350.88 342.66 345.69 337.43 341.62 C 332.82 337.66 327.54 333.50 321.16 333.45 C 316.51 333.37 313.13 336.95 310.18 340.07 C 303.16 347.93 301.18 358.75 299.86 368.86 C 298.89 377.26 300.76 386.54 295.89 394.04 C 291.99 398.57 285.81 400.37 280.00 400.53 C 267.65 400.58 255.30 400.44 242.96 400.63 C 225.61 400.44 208.55 396.09 192.51 389.68 C 180.38 384.83 169.32 377.77 158.40 370.70 C 142.84 360.60 128.39 348.67 116.31 334.54 C 102.51 317.27 88.87 299.84 76.62 281.42 C 61.57 259.56 48.68 236.33 35.95 213.07 C 30.11 201.58 24.25 190.10 18.46 178.59 C 14.15 169.27 9.97 159.89 5.72 150.55 C 3.53 145.48 0.65 140.57 0.00 134.99 L 0.00 133.37 C 0.13 130.97 1.23 128.69 3.12 127.19 C 7.17 123.66 12.86 123.43 17.96 123.31 C 41.32 123.12 64.68 122.98 88.04 122.79 C 96.31 123.20 105.00 127.79 108.06 135.86 C 116.49 156.19 126.31 175.92 136.77 195.27 C 142.51 206.85 148.65 218.26 155.91 228.97 C 161.70 237.35 168.31 245.59 177.16 250.89 C 181.34 253.54 186.99 253.76 191.31 251.36 C 197.82 243.11 199.19 232.29 200.16 222.15 C 202.79 203.85 202.46 185.25 200.60 166.90 C 199.39 158.73 198.12 150.29 194.12 142.94 C 189.19 135.56 180.27 132.37 171.89 130.93 C 169.93 131.00 169.03 128.79 170.40 127.41 C 174.88 120.44 182.36 115.43 190.48 113.73 Z" />
</g>
</svg>
