<?xml version="1.0" encoding="UTF-8" ?>
<!DOCTYPE svg PUBLIC "-//W3C//DTD SVG 1.1//EN" "http://www.w3.org/Graphics/SVG/1.1/DTD/svg11.dtd">
<svg width="512pt" height="512pt" viewBox="0 0 512 512" version="1.1" xmlns="http://www.w3.org/2000/svg">
<g id="#079d66ff">
<path fill="#079d66" opacity="1.00" d=" M 189.83 113.89 C 201.37 111.36 213.20 110.68 224.97 110.19 C 242.84 109.93 260.87 109.65 278.54 112.71 C 284.82 113.89 291.92 115.78 295.56 121.54 C 299.86 129.28 300.70 138.32 300.39 147.03 C 299.77 172.34 298.87 197.66 298.74 222.98 C 299.25 230.21 299.25 237.83 302.63 244.44 C 304.80 248.70 308.89 252.58 314.00 252.24 C 318.33 251.70 321.37 248.18 324.49 245.48 C 334.72 236.83 342.06 225.47 349.37 214.39 C 361.83 195.52 372.76 175.64 381.88 154.95 C 385.42 147.59 387.99 139.80 391.49 132.43 C 393.73 127.60 398.36 123.57 403.97 123.93 C 430.97 123.56 457.98 123.61 484.98 123.26 C 492.74 122.64 501.26 122.55 508.02 126.98 C 510.90 128.82 511.70 132.34 512.00 135.52 L 512.00 136.44 C 511.08 145.28 507.25 153.44 503.20 161.23 C 488.04 189.33 467.41 213.88 448.48 239.44 C 442.70 247.39 436.36 254.99 431.66 263.66 C 429.47 267.70 428.04 272.34 428.65 276.97 C 429.34 282.32 432.29 287.11 435.91 290.99 C 449.29 305.64 464.66 318.30 478.13 332.85 C 488.07 343.40 497.66 354.41 505.24 366.82 C 510.09 373.59 512.91 382.57 510.67 390.80 C 507.00 397.80 498.48 400.28 491.06 400.35 C 468.05 401.14 445.01 401.07 421.99 401.64 C 409.63 403.21 397.47 398.25 387.20 391.76 C 371.51 380.61 360.03 364.91 347.01 350.97 C 342.18 345.45 336.68 340.45 330.55 336.42 C 325.79 333.31 318.79 331.89 314.26 336.17 C 304.79 343.44 301.55 355.65 300.10 366.94 C 298.76 374.77 300.57 383.06 297.61 390.61 C 295.43 397.23 287.91 399.94 281.55 400.44 C 269.71 400.70 257.85 400.38 246.00 400.60 C 229.68 400.93 213.48 397.38 198.19 391.84 C 181.63 386.08 166.85 376.40 152.42 366.65 C 136.62 355.79 122.19 342.76 110.65 327.40 C 98.14 311.74 86.05 295.71 74.98 278.99 C 67.38 268.08 60.77 256.53 53.82 245.21 C 46.10 231.21 37.95 217.44 30.87 203.10 C 26.65 194.70 22.32 186.37 18.16 177.94 C 13.94 168.76 9.81 159.54 5.63 150.34 C 3.39 145.25 0.52 140.28 0.00 134.63 L 0.00 132.49 C 1.44 125.52 9.41 123.40 15.57 123.38 C 39.73 123.06 63.90 123.02 88.06 122.80 C 95.82 123.22 104.09 127.21 107.44 134.58 C 110.50 140.96 112.90 147.64 115.99 154.01 C 124.52 172.73 134.47 190.74 143.85 209.04 C 152.23 223.67 160.74 239.14 174.63 249.30 C 179.25 252.98 186.01 254.42 191.30 251.36 C 197.41 243.64 199.06 233.54 199.95 223.99 C 201.38 213.40 202.25 202.72 202.08 192.03 C 201.55 176.88 201.33 161.32 196.02 146.93 C 192.75 137.53 182.66 132.85 173.48 131.30 C 171.90 130.98 168.64 130.52 170.05 128.14 C 174.16 120.90 181.76 115.78 189.83 113.89 Z" />
</g>
</svg>
