<?xml version="1.0" encoding="UTF-8" ?>
<!DOCTYPE svg PUBLIC "-//W3C//DTD SVG 1.1//EN" "http://www.w3.org/Graphics/SVG/1.1/DTD/svg11.dtd">
<svg width="512pt" height="512pt" viewBox="0 0 512 512" version="1.1" xmlns="http://www.w3.org/2000/svg">
<g id="#079d66ff">
<path fill="#079d66" opacity="1.00" d=" M 253.25 0.00 L 262.64 0.00 C 300.30 1.18 337.77 10.33 371.37 27.49 C 426.65 55.57 471.11 104.32 493.96 161.96 C 509.06 199.83 514.51 241.44 509.92 281.94 C 505.64 320.62 492.11 358.23 470.80 390.79 C 452.11 419.39 427.68 444.22 399.42 463.41 C 369.34 483.93 334.77 497.81 298.85 503.84 C 245.41 513.01 189.15 504.59 140.75 480.15 C 94.07 490.75 47.40 501.42 0.71 511.97 C 10.74 466.33 20.81 420.70 30.81 375.06 C 31.41 373.61 30.39 372.30 29.86 371.05 C 11.74 337.11 1.40 299.06 0.00 260.60 L 0.00 246.43 C 1.09 217.13 6.85 187.96 17.81 160.73 C 38.23 109.26 76.26 65.21 123.61 36.64 C 162.48 13.05 207.80 0.39 253.25 0.00 M 167.74 58.65 C 123.49 78.18 86.20 113.09 63.94 156.05 C 46.60 189.07 38.39 226.79 40.25 264.03 C 42.09 300.53 54.37 336.04 73.46 367.05 C 66.89 397.76 59.80 428.36 53.39 459.09 C 84.30 451.90 115.30 445.09 146.20 437.88 C 149.08 439.22 151.82 440.86 154.64 442.33 C 175.10 453.22 197.36 460.71 220.23 464.53 C 268.64 472.68 319.77 463.77 362.43 439.44 C 395.88 420.58 424.14 392.61 443.26 359.31 C 466.46 319.36 475.87 271.64 469.63 225.87 C 462.93 174.34 435.83 126.25 396.62 92.40 C 369.49 68.76 336.27 52.15 301.06 44.74 C 256.63 35.26 209.21 40.04 167.74 58.65 Z" />
<path fill="#079d66" opacity="1.00" d=" M 169.47 142.70 C 173.53 141.46 177.82 141.96 182.00 141.86 C 185.56 141.92 189.44 141.49 192.64 143.41 C 196.00 145.48 197.94 149.12 199.53 152.61 C 205.97 167.32 211.68 182.32 217.92 197.11 C 219.55 200.60 218.53 204.52 216.67 207.70 C 213.25 215.71 206.07 221.04 200.54 227.48 C 198.20 230.04 198.50 233.93 200.30 236.70 C 209.13 251.63 219.83 265.54 232.66 277.26 C 245.20 288.67 259.69 297.86 275.21 304.66 C 278.74 306.09 282.09 308.29 285.95 308.66 C 288.82 308.95 291.29 307.07 293.03 304.99 C 299.31 297.60 305.69 290.28 311.34 282.38 C 312.93 280.13 315.06 277.80 318.04 277.75 C 321.64 277.80 325.01 279.38 328.27 280.76 C 342.55 287.34 356.54 294.51 370.65 301.44 C 372.97 302.71 376.04 304.06 376.33 307.08 C 377.27 315.17 375.40 323.32 373.01 331.03 C 370.91 338.31 365.26 343.83 359.42 348.33 C 352.68 353.36 345.15 357.51 337.05 359.86 C 325.79 362.37 313.99 362.07 302.81 359.26 C 287.61 355.66 272.92 350.21 258.48 344.33 C 229.82 331.95 205.61 311.13 185.28 287.76 C 175.18 276.27 166.53 263.63 157.84 251.08 C 148.58 236.86 140.99 221.00 139.20 203.94 C 137.61 187.28 141.96 169.78 152.67 156.72 C 157.38 151.17 162.14 144.79 169.47 142.70 Z" />
</g>
</svg>
