<?xml version="1.0" encoding="UTF-8" ?>
<!DOCTYPE svg PUBLIC "-//W3C//DTD SVG 1.1//EN" "http://www.w3.org/Graphics/SVG/1.1/DTD/svg11.dtd">
<svg width="512pt" height="512pt" viewBox="0 0 512 512" version="1.1" xmlns="http://www.w3.org/2000/svg">
<g id="#ffffffff">
<path fill="#ffffff" opacity="1.00" d=" M 253.48 0.00 L 261.59 0.00 C 300.37 0.99 338.96 10.56 373.38 28.53 C 428.23 57.01 472.19 105.91 494.58 163.53 C 508.38 198.85 513.83 237.35 510.59 275.13 C 507.45 312.81 495.59 349.73 476.18 382.18 C 457.04 414.21 430.83 441.95 400.03 463.00 C 370.17 483.49 335.86 497.43 300.18 503.61 C 246.32 513.16 189.53 504.77 140.69 480.15 C 94.03 490.80 47.37 501.40 0.70 511.99 C 10.86 465.87 20.97 419.74 31.16 373.63 C 11.63 337.50 0.34 296.74 0.00 255.59 L 0.00 249.65 C 0.60 217.02 7.42 184.48 20.39 154.51 C 41.99 104.13 80.56 61.42 127.98 34.05 C 165.93 12.07 209.65 0.33 253.48 0.00 M 142.04 72.20 C 105.54 94.66 75.91 128.20 58.45 167.37 C 44.17 199.09 37.98 234.42 40.58 269.11 C 43.21 303.89 55.33 337.51 73.48 367.15 C 66.74 397.79 60.00 428.43 53.25 459.07 C 84.28 451.99 115.32 445.01 146.34 437.88 C 164.36 448.07 183.60 456.21 203.74 461.12 C 232.70 468.33 263.14 469.39 292.54 464.33 C 331.44 457.77 368.40 440.18 398.08 414.19 C 429.24 387.15 452.44 350.94 463.56 311.17 C 475.81 268.11 473.86 221.11 457.77 179.30 C 436.31 123.00 390.44 76.38 334.17 54.65 C 306.84 43.92 277.27 39.10 247.96 40.15 C 210.67 41.39 173.76 52.55 142.04 72.20 Z" />
<path fill="#ffffff" opacity="1.00" d=" M 169.44 142.72 C 173.52 141.43 177.85 141.98 182.06 141.86 C 185.58 141.91 189.40 141.50 192.57 143.37 C 195.75 145.28 197.67 148.63 199.20 151.89 C 205.19 165.40 210.44 179.21 216.15 192.83 C 217.45 196.03 219.37 199.36 218.59 202.94 C 216.51 209.93 212.00 215.85 206.82 220.87 C 204.56 223.29 202.03 225.48 200.04 228.14 C 198.13 230.73 198.73 234.26 200.37 236.82 C 209.09 251.51 219.60 265.24 232.19 276.82 C 244.82 288.43 259.48 297.75 275.17 304.64 C 278.74 306.07 282.10 308.30 286.00 308.67 C 288.81 308.93 291.25 307.11 292.96 305.06 C 299.43 297.47 305.97 289.92 311.78 281.81 C 313.38 279.44 315.96 277.42 319.00 277.75 C 323.54 278.37 327.67 280.50 331.79 282.38 C 344.83 288.53 357.68 295.06 370.62 301.42 C 372.95 302.69 376.01 304.03 376.32 307.04 C 377.28 315.17 375.40 323.36 372.99 331.10 C 370.88 338.35 365.23 343.84 359.42 348.33 C 352.68 353.37 345.16 357.50 337.06 359.86 C 325.00 362.60 312.38 361.91 300.48 358.71 C 285.68 354.94 271.31 349.64 257.22 343.79 C 229.55 331.52 206.05 311.42 186.21 288.84 C 175.73 277.04 166.79 264.02 157.83 251.07 C 148.24 236.33 140.39 219.79 139.05 202.03 C 138.29 189.98 140.42 177.61 146.04 166.86 C 149.52 160.05 154.49 154.14 159.81 148.69 C 162.46 145.94 165.77 143.82 169.44 142.72 Z" />
</g>
</svg>
