<?xml version="1.0" encoding="UTF-8" ?>
<!DOCTYPE svg PUBLIC "-//W3C//DTD SVG 1.1//EN" "http://www.w3.org/Graphics/SVG/1.1/DTD/svg11.dtd">
<svg width="512pt" height="512pt" viewBox="0 0 512 512" version="1.1" xmlns="http://www.w3.org/2000/svg">
<g id="#ffffffff">
<path fill="#ffffff" opacity="1.00" d=" M 246.39 83.49 C 294.64 83.47 342.91 84.32 391.08 87.29 C 407.27 88.41 423.51 89.61 439.46 92.74 C 462.96 97.11 482.46 116.73 486.88 140.20 C 492.05 163.08 493.44 186.59 494.73 209.94 C 496.20 240.21 495.98 270.54 494.17 300.79 C 492.80 322.95 491.18 345.25 485.95 366.90 C 480.48 388.59 461.89 406.23 439.91 410.47 C 417.19 414.69 394.02 415.64 370.99 416.93 C 308.37 419.64 245.66 420.23 183.01 418.40 C 150.99 417.37 118.92 416.38 87.08 412.63 C 77.58 411.28 67.85 410.11 59.04 406.03 C 43.42 399.09 31.08 385.16 26.18 368.77 C 24.39 362.54 23.19 356.17 22.14 349.79 C 18.35 325.39 17.12 300.68 16.20 276.03 C 15.17 246.64 16.18 217.22 18.25 187.90 C 19.33 174.30 20.71 160.71 23.18 147.29 C 24.48 140.56 25.84 133.75 28.68 127.47 C 36.46 109.85 52.92 96.12 71.91 92.41 C 82.19 90.40 92.63 89.40 103.05 88.42 C 150.73 84.65 198.59 83.94 246.39 83.49 M 207.91 179.52 C 207.90 227.49 207.90 275.46 207.91 323.44 C 249.56 299.46 291.22 275.50 332.84 251.48 C 291.22 227.46 249.57 203.48 207.91 179.52 Z" />
</g>
</svg>
