<?xml version="1.0" encoding="UTF-8" ?>
<!DOCTYPE svg PUBLIC "-//W3C//DTD SVG 1.1//EN" "http://www.w3.org/Graphics/SVG/1.1/DTD/svg11.dtd">
<svg width="512pt" height="512pt" viewBox="0 0 512 512" version="1.1" xmlns="http://www.w3.org/2000/svg">
<g id="#079d66ff">
<path fill="#079d66" opacity="1.00" d=" M 170.58 84.87 C 229.73 82.98 288.94 83.00 348.08 85.20 C 377.14 86.36 406.33 87.35 435.11 91.90 C 449.53 93.98 463.32 100.91 472.90 111.99 C 479.98 119.92 484.71 129.81 486.88 140.20 C 492.05 163.09 493.45 186.61 494.73 209.98 C 496.20 240.26 495.98 270.62 494.17 300.88 C 492.81 322.78 491.20 344.81 486.11 366.22 C 480.87 388.19 462.15 406.15 439.98 410.45 C 417.27 414.69 394.11 415.63 371.10 416.92 C 313.77 419.38 256.35 420.16 198.99 418.79 C 166.31 417.98 133.62 417.04 101.05 414.13 C 89.69 412.90 78.20 411.96 67.12 408.98 C 46.88 403.37 30.34 386.35 25.40 365.93 C 20.27 344.67 18.69 322.76 17.34 301.00 C 14.81 260.66 15.51 220.15 18.92 179.89 C 20.29 165.53 21.92 151.13 25.38 137.10 C 30.97 114.02 51.26 95.29 74.81 91.85 C 106.48 86.88 138.61 86.11 170.58 84.87 M 207.92 179.52 C 207.90 227.49 207.90 275.47 207.92 323.44 C 249.57 299.46 291.22 275.50 332.84 251.48 C 291.22 227.45 249.57 203.48 207.92 179.52 Z" />
</g>
</svg>
