<svg width="50" height="33" viewBox="0 0 50 33" fill="none" xmlns="http://www.w3.org/2000/svg">
<path d="M33.9217 33H17.415V16.285C17.415 7.29178 24.6159 0 33.4933 0H50V16.715C50 25.7119 42.8028 33 33.9217 33Z" fill="url(#paint0_linear_185_7540)"/>
<path d="M25.9158 33H17.415V24.392C17.415 17.2423 23.1388 11.4463 30.1994 11.4463H38.7001V20.0543C38.7001 27.204 32.9763 33 25.9158 33Z" fill="url(#paint1_linear_185_7540)"/>
<path d="M23.0835 22.4214V33.0001H12.6366C5.65731 33.0001 0 27.2714 0 20.2039V9.62524H10.4468C17.4261 9.62524 23.0835 15.354 23.0835 22.4214Z" fill="#4E5A70"/>
<path d="M23.0837 26.5721V33H16.7358C10.7425 33 5.88281 28.079 5.88281 22.01V15.582H12.2307C18.224 15.582 23.0837 20.503 23.0837 26.5721Z" fill="#20293B"/>
<defs>
<linearGradient id="paint0_linear_185_7540" x1="54.4074" y1="-4.45719" x2="20.5102" y2="29.0174" gradientUnits="userSpaceOnUse">
<stop stop-color="#A8FFA3"/>
<stop offset="1" stop-color="#A2FF00"/>
</linearGradient>
<linearGradient id="paint1_linear_185_7540" x1="39.4689" y1="10.6699" x2="22.3662" y2="27.5594" gradientUnits="userSpaceOnUse">
<stop stop-color="#3AB306"/>
<stop offset="1" stop-color="#A2FF00"/>
</linearGradient>
</defs>
</svg>
