<svg width="36" height="36" viewBox="0 0 36 36" fill="none" xmlns="http://www.w3.org/2000/svg">
    <g clip-path="url(#clip0_497_21474)">
        <path d="M11.3884 19.7004L10.9815 17.9692C10.2923 15.0367 12.5174 12.228 15.5297 12.228H15.5297H26.6587V12.228C26.6587 15.6653 24.6764 18.7943 21.5685 20.2626L20.1055 20.9537L14.5946 23.5572"
              stroke="#54D600" stroke-width="2" stroke-miterlimit="10" stroke-linecap="round" stroke-linejoin="round"/>
        <path d="M11.3884 19.7002L8.73471 9.1084H6.51953" stroke="#54D600" stroke-width="2" stroke-miterlimit="10"
              stroke-linecap="round" stroke-linejoin="round"/>
        <path d="M12.5587 26.8914C13.8252 26.8914 14.8518 25.8647 14.8518 24.5983C14.8518 23.3318 13.8252 22.3052 12.5587 22.3052C11.2923 22.3052 10.2656 23.3318 10.2656 24.5983C10.2656 25.8647 11.2923 26.8914 12.5587 26.8914Z"
              stroke="#54D600" stroke-width="2" stroke-miterlimit="10" stroke-linecap="round" stroke-linejoin="round"/>
        <path d="M25.4454 26.8914C26.7119 26.8914 27.7385 25.8647 27.7385 24.5983C27.7385 23.3318 26.7119 22.3052 25.4454 22.3052C24.179 22.3052 23.1523 23.3318 23.1523 24.5983C23.1523 25.8647 24.179 26.8914 25.4454 26.8914Z"
              stroke="#54D600" stroke-width="2" stroke-miterlimit="10" stroke-linecap="round" stroke-linejoin="round"/>
    </g>
    <defs>
        <clipPath id="clip0_497_21474">
            <rect width="36" height="36" fill="white"/>
        </clipPath>
    </defs>
</svg>
