<?xml version="1.0" encoding="UTF-8" ?>
<!DOCTYPE svg PUBLIC "-//W3C//DTD SVG 1.1//EN" "http://www.w3.org/Graphics/SVG/1.1/DTD/svg11.dtd">
<svg width="512pt" height="512pt" viewBox="0 0 512 512" version="1.1" xmlns="http://www.w3.org/2000/svg">
<g id="#079d66ff">
<path fill="#079d66" opacity="1.00" d=" M 11.56 0.00 L 58.62 0.00 C 68.19 0.15 77.24 6.69 80.18 15.83 C 83.49 26.24 86.53 36.74 89.78 47.17 C 93.80 46.38 97.89 46.47 101.96 46.53 C 225.29 46.53 348.63 46.53 471.96 46.53 C 480.82 46.37 489.88 48.66 496.95 54.14 C 506.17 60.93 511.66 72.09 512.00 83.48 L 512.00 88.05 C 511.59 94.32 509.84 100.42 507.13 106.07 C 480.40 162.71 453.86 219.43 427.08 276.05 C 419.62 291.96 402.58 302.65 385.00 302.50 C 309.90 302.58 234.80 302.50 159.70 302.54 C 158.33 304.55 156.92 306.54 155.33 308.39 C 143.68 321.94 132.05 335.51 120.43 349.08 C 230.97 349.11 341.51 349.08 452.06 349.10 C 455.94 349.05 460.12 350.16 462.60 353.34 C 466.37 357.64 465.32 363.78 465.47 369.03 C 465.22 375.04 466.06 381.13 464.88 387.07 C 463.52 392.71 457.62 395.99 452.06 395.62 C 342.02 395.62 231.97 395.64 121.93 395.61 C 110.80 395.77 99.55 392.29 90.96 385.10 C 79.85 375.93 73.08 361.39 74.09 346.92 C 74.80 336.06 79.39 325.65 86.37 317.36 C 95.41 306.66 104.63 296.11 113.67 285.41 C 89.37 205.80 65.20 126.15 40.93 46.53 C 31.03 46.43 21.11 46.72 11.21 46.40 C 5.20 46.30 0.34 41.04 0.00 35.17 L 0.00 11.55 C 0.21 5.37 5.38 0.21 11.56 0.00 Z" />
<path fill="#079d66" opacity="1.00" d=" M 110.98 428.96 C 119.95 421.83 131.66 418.26 143.09 419.20 C 154.74 419.96 165.98 425.46 173.84 434.07 C 180.77 441.69 185.22 451.62 185.89 461.93 C 186.92 474.09 182.77 486.54 174.78 495.75 C 166.34 505.80 153.44 511.52 140.41 512.00 L 138.83 512.00 C 125.95 511.49 113.23 505.92 104.78 496.08 C 96.59 486.85 92.36 474.24 93.40 461.93 C 94.24 449.12 100.84 436.83 110.98 428.96 Z" />
<path fill="#079d66" opacity="1.00" d=" M 389.53 429.54 C 398.76 421.86 411.10 418.12 423.04 419.26 C 435.35 420.24 447.12 426.50 454.85 436.13 C 462.82 445.73 466.54 458.69 464.95 471.07 C 463.74 481.86 458.43 492.06 450.51 499.45 C 442.20 507.35 430.89 511.54 419.52 512.00 L 418.49 512.00 C 404.99 511.61 391.61 505.59 383.12 494.97 C 375.55 485.90 371.72 473.81 372.67 462.04 C 373.47 449.49 379.78 437.44 389.53 429.54 Z" />
</g>
</svg>
