<?xml version="1.0" encoding="UTF-8" ?>
<!DOCTYPE svg PUBLIC "-//W3C//DTD SVG 1.1//EN" "http://www.w3.org/Graphics/SVG/1.1/DTD/svg11.dtd">
<svg width="512pt" height="512pt" viewBox="0 0 512 512" version="1.1" xmlns="http://www.w3.org/2000/svg">
<g id="#141d28ff">
<path fill="#141d28" opacity="1.00" d=" M 11.52 0.00 L 58.61 0.00 C 68.42 0.14 77.61 7.01 80.39 16.43 C 83.59 26.65 86.60 36.93 89.78 47.15 C 91.84 46.86 93.90 46.55 95.99 46.52 C 221.66 46.56 347.33 46.49 473.01 46.55 C 482.69 46.44 492.48 49.72 499.63 56.35 C 507.13 63.03 511.43 72.81 512.00 82.78 L 512.00 87.59 C 511.68 93.79 510.06 99.84 507.41 105.43 C 480.73 162.08 454.13 218.76 427.42 275.39 C 421.67 287.83 410.28 297.49 397.00 300.92 C 389.86 302.88 382.39 302.51 375.07 302.53 C 303.29 302.54 231.50 302.52 159.71 302.54 C 158.34 304.53 156.94 306.50 155.37 308.34 C 143.72 321.91 132.06 335.47 120.45 349.08 C 229.30 349.10 338.15 349.10 447.00 349.07 C 452.18 349.06 458.39 348.53 462.18 352.86 C 466.37 357.12 465.36 363.56 465.48 368.99 C 465.22 375.00 466.06 381.11 464.88 387.06 C 463.53 392.69 457.64 395.99 452.09 395.62 C 342.72 395.64 233.36 395.61 124.00 395.63 C 116.06 395.72 107.94 394.72 100.72 391.24 C 86.50 384.77 76.31 370.55 74.32 355.12 C 72.62 341.54 77.64 327.70 86.37 317.36 C 95.41 306.66 104.62 296.11 113.66 285.42 C 89.38 205.81 65.19 126.16 40.93 46.54 C 31.03 46.43 21.11 46.73 11.21 46.40 C 5.21 46.29 0.38 41.07 0.00 35.22 L 0.00 11.55 C 0.21 5.38 5.35 0.23 11.52 0.00 Z" />
<path fill="#141d28" opacity="1.00" d=" M 135.01 419.30 C 146.51 418.08 158.41 421.41 167.61 428.42 C 178.12 436.30 185.03 448.85 185.90 461.97 C 186.91 474.14 182.76 486.56 174.77 495.77 C 166.47 505.63 153.89 511.29 141.11 512.00 L 138.78 512.00 C 131.70 511.49 124.58 510.06 118.29 506.65 C 104.56 499.68 94.84 485.43 93.49 470.08 C 92.22 458.14 95.86 445.78 103.42 436.45 C 111.06 426.80 122.73 420.41 135.01 419.30 Z" />
<path fill="#141d28" opacity="1.00" d=" M 383.91 435.00 C 391.66 425.96 403.06 420.16 414.93 419.24 C 426.88 418.14 439.22 421.94 448.43 429.65 C 457.82 437.35 464.02 448.86 465.08 460.98 C 466.42 473.76 462.05 486.98 453.41 496.48 C 444.93 506.16 432.28 511.54 419.52 512.00 L 417.89 512.00 C 407.92 511.42 397.95 508.23 390.14 501.87 C 378.49 492.78 371.69 477.85 372.59 463.09 C 373.05 452.81 377.13 442.73 383.91 435.00 Z" />
</g>
</svg>
