<?xml version="1.0" encoding="UTF-8" ?>
<!DOCTYPE svg PUBLIC "-//W3C//DTD SVG 1.1//EN" "http://www.w3.org/Graphics/SVG/1.1/DTD/svg11.dtd">
<svg width="512pt" height="512pt" viewBox="0 0 512 512" version="1.1" xmlns="http://www.w3.org/2000/svg">
<g id="#ffffffff">
<path fill="#ffffff" opacity="1.00" d=" M 214.44 0.00 L 218.57 0.00 C 250.47 0.39 282.44 7.56 310.97 21.98 C 316.60 24.55 322.14 27.33 327.35 30.69 C 355.10 46.38 378.75 69.04 396.35 95.57 C 401.21 103.83 406.63 111.81 410.48 120.62 C 440.91 180.05 440.67 253.95 410.52 313.43 C 405.96 322.43 400.63 330.99 395.09 339.42 C 430.17 374.50 465.29 409.53 500.30 444.67 C 507.69 451.92 511.88 462.00 512.00 472.34 L 512.00 473.09 C 511.96 493.75 493.43 512.11 472.77 512.00 L 472.35 512.00 C 462.03 511.92 451.96 507.68 444.86 500.18 C 409.66 465.19 374.56 430.12 339.43 395.06 C 321.99 406.92 303.05 416.58 282.96 423.05 C 233.50 438.62 178.30 436.40 130.77 415.34 C 124.89 412.49 118.95 409.77 113.13 406.83 C 107.22 403.43 101.41 399.87 95.58 396.36 C 69.06 378.78 46.43 355.16 30.74 327.44 C 25.71 319.72 22.18 311.19 18.10 302.96 C 6.39 276.77 0.49 248.12 0.00 219.46 L 0.00 214.53 C 0.42 182.37 7.68 150.14 22.36 121.45 C 26.28 112.43 31.77 104.25 36.75 95.81 C 52.27 72.20 72.69 51.81 96.37 36.40 C 104.64 31.53 112.65 26.16 121.49 22.35 C 150.17 7.75 182.32 0.41 214.44 0.00 M 199.57 79.83 C 183.91 81.62 168.54 86.09 154.52 93.30 C 134.38 103.73 117.05 119.27 103.73 137.56 C 78.31 172.10 72.68 218.96 85.34 259.49 C 92.84 283.00 107.48 303.86 125.92 320.11 C 142.97 335.55 164.05 346.58 186.59 351.32 C 210.74 356.24 236.24 355.34 259.76 347.81 C 278.66 341.70 295.96 331.03 310.33 317.36 C 327.56 301.46 341.00 281.31 348.11 258.91 C 359.84 220.52 355.40 176.63 333.14 142.81 C 318.06 120.10 296.85 101.16 271.86 90.02 C 249.28 80.08 223.99 77.12 199.57 79.83 Z" />
</g>
</svg>
