<?xml version="1.0" encoding="UTF-8" ?>
<!DOCTYPE svg PUBLIC "-//W3C//DTD SVG 1.1//EN" "http://www.w3.org/Graphics/SVG/1.1/DTD/svg11.dtd">
<svg width="512pt" height="512pt" viewBox="0 0 512 512" version="1.1" xmlns="http://www.w3.org/2000/svg">
<g id="#079d66ff">
<path fill="#079d66" opacity="1.00" d=" M 212.79 0.00 L 219.31 0.00 C 248.27 0.46 277.22 6.50 303.64 18.45 C 311.36 22.30 319.40 25.56 326.66 30.27 C 358.43 48.22 385.17 75.01 403.10 106.79 C 406.20 111.61 408.72 116.76 411.12 121.96 C 434.02 167.17 438.83 220.67 426.79 269.69 C 420.70 294.67 409.52 318.19 395.09 339.41 C 430.16 374.52 465.31 409.54 500.32 444.70 C 507.59 451.83 511.76 461.71 512.00 471.88 L 512.00 473.07 C 511.96 493.59 493.70 511.86 473.20 512.00 L 472.44 512.00 C 466.50 511.72 460.48 510.71 455.19 507.89 C 450.43 505.56 446.57 501.85 442.81 498.20 C 408.36 463.81 373.87 429.46 339.43 395.07 C 321.81 407.05 302.65 416.77 282.34 423.25 C 235.41 437.84 183.39 436.51 137.66 418.23 C 131.32 415.85 125.35 412.67 119.23 409.82 C 111.14 406.20 103.81 401.17 96.18 396.73 C 72.36 381.15 51.80 360.59 36.30 336.72 C 31.45 328.49 26.13 320.51 22.32 311.72 C 7.76 283.25 0.54 251.29 0.00 219.39 L 0.00 213.02 C 0.56 187.81 5.20 162.65 14.41 139.14 C 17.54 130.74 21.80 122.82 25.60 114.71 C 29.20 108.06 33.25 101.66 37.16 95.19 C 54.56 69.05 77.86 46.67 105.19 31.11 C 113.29 25.81 122.25 22.09 130.91 17.85 C 156.65 6.48 184.69 0.61 212.79 0.00 M 199.54 79.83 C 179.73 82.08 160.37 88.71 143.63 99.61 C 128.08 109.61 114.53 122.69 103.67 137.64 C 90.65 155.58 82.41 176.90 79.92 198.92 C 76.74 226.02 80.67 254.33 93.31 278.69 C 103.79 299.05 119.57 316.49 138.07 329.88 C 154.09 341.36 172.73 349.15 192.18 352.37 C 216.95 356.40 242.92 354.52 266.42 345.44 C 282.98 339.06 298.06 329.09 310.88 316.86 C 324.19 304.36 335.34 289.42 342.79 272.72 C 353.22 249.74 356.24 223.79 353.32 198.85 C 350.84 177.02 342.68 155.90 329.89 138.05 C 317.76 121.30 302.31 106.82 284.39 96.43 C 259.02 81.49 228.59 76.55 199.54 79.83 Z" />
</g>
</svg>
