<?xml version="1.0" encoding="UTF-8" ?>
<!DOCTYPE svg PUBLIC "-//W3C//DTD SVG 1.1//EN" "http://www.w3.org/Graphics/SVG/1.1/DTD/svg11.dtd">
<svg width="512pt" height="512pt" viewBox="0 0 512 512" version="1.1" xmlns="http://www.w3.org/2000/svg">
<g id="#141d28ff">
<path fill="#141d28" opacity="1.00" d=" M 212.38 0.00 L 219.61 0.00 C 248.21 0.49 276.78 6.45 302.93 18.12 C 311.12 22.17 319.63 25.65 327.31 30.66 C 355.09 46.37 378.78 69.05 396.38 95.63 C 401.23 103.85 406.61 111.79 410.45 120.57 C 442.24 182.63 440.62 260.54 406.31 321.23 C 402.99 327.51 398.93 333.35 395.09 339.31 C 427.90 372.33 460.91 405.16 493.80 438.12 C 498.97 443.30 504.56 448.37 507.86 455.04 C 510.43 459.87 511.42 465.34 512.00 470.73 L 512.00 474.17 C 511.29 494.14 493.56 511.64 473.56 512.00 L 471.60 512.00 C 465.94 511.60 460.22 510.57 455.17 507.88 C 450.41 505.55 446.56 501.84 442.80 498.19 C 408.37 463.80 373.87 429.48 339.45 395.07 C 322.01 406.87 303.12 416.57 283.05 423.02 C 230.25 439.68 170.77 436.04 121.25 410.78 C 112.23 406.86 104.05 401.37 95.62 396.37 C 69.05 378.79 46.40 355.12 30.69 327.35 C 25.67 319.65 22.15 311.12 18.08 302.91 C 6.41 276.80 0.52 248.25 0.00 219.69 L 0.00 212.42 C 0.80 181.46 7.72 150.47 21.73 122.76 C 24.42 116.94 27.26 111.19 30.74 105.80 C 51.55 69.01 84.51 39.54 122.75 21.75 C 150.46 7.79 181.43 0.78 212.38 0.00 M 199.59 79.82 C 171.87 82.80 145.34 95.02 124.96 114.01 C 105.56 131.30 90.57 153.89 83.77 179.08 C 76.80 205.10 77.23 233.11 85.12 258.87 C 91.23 278.04 101.89 295.67 115.77 310.21 C 131.43 327.14 151.15 340.54 173.16 347.69 C 196.83 355.36 222.53 356.29 246.85 351.27 C 285.06 343.29 317.99 316.89 337.39 283.45 C 347.99 264.74 353.71 243.38 354.24 221.91 C 355.47 194.23 348.42 166.08 333.17 142.85 C 319.50 122.22 300.77 104.76 278.76 93.34 C 254.57 80.78 226.52 76.83 199.59 79.82 Z" />
</g>
</svg>
