<?xml version="1.0" encoding="UTF-8" ?>
<!DOCTYPE svg PUBLIC "-//W3C//DTD SVG 1.1//EN" "http://www.w3.org/Graphics/SVG/1.1/DTD/svg11.dtd">
<svg width="512pt" height="512pt" viewBox="0 0 512 512" version="1.1" xmlns="http://www.w3.org/2000/svg">
<g id="#079d66ff">
<path fill="#079d66" opacity="1.00" d=" M 42.48 66.56 C 66.31 46.16 98.17 37.63 129.04 36.83 C 159.30 34.88 189.08 46.29 213.43 63.69 C 228.66 73.86 242.96 85.41 256.00 98.27 C 271.59 82.77 289.20 69.46 307.69 57.62 C 322.79 48.23 339.58 41.41 357.10 38.23 C 368.97 36.07 381.10 36.49 393.07 37.36 C 409.17 38.79 425.22 42.10 440.09 48.54 C 470.69 61.10 494.89 87.81 504.55 119.42 C 509.78 135.18 511.57 151.85 512.00 168.39 L 512.00 172.63 C 511.18 198.34 502.54 223.36 489.23 245.23 C 475.02 269.16 456.14 289.95 436.00 309.02 C 380.13 362.80 324.31 416.64 268.41 470.38 C 261.91 477.04 250.14 477.01 243.61 470.41 C 183.49 412.52 123.49 354.49 63.37 296.59 C 55.53 289.75 49.43 281.27 42.59 273.51 C 29.69 257.00 17.31 239.56 10.49 219.56 C 4.27 204.65 0.52 188.69 0.00 172.52 L 0.00 168.42 C 0.38 156.72 1.15 144.96 3.74 133.51 C 8.81 107.76 22.16 83.39 42.48 66.56 Z" />
</g>
</svg>
