<?xml version="1.0" encoding="UTF-8" ?>
<!DOCTYPE svg PUBLIC "-//W3C//DTD SVG 1.1//EN" "http://www.w3.org/Graphics/SVG/1.1/DTD/svg11.dtd">
<svg width="512pt" height="512pt" viewBox="0 0 512 512" version="1.1" xmlns="http://www.w3.org/2000/svg">
<g id="#141d28ff">
<path fill="#141d28" opacity="1.00" d=" M 83.95 44.09 C 101.66 38.43 120.37 36.54 138.90 36.65 C 166.04 37.46 192.09 48.37 213.94 64.05 C 228.99 74.11 243.11 85.56 256.00 98.27 C 271.76 82.61 289.58 69.17 308.30 57.24 C 322.05 48.77 337.19 42.48 352.99 39.03 C 369.46 35.42 386.52 36.45 403.13 38.49 C 423.18 41.34 443.01 47.76 459.83 59.23 C 477.81 71.24 492.13 88.64 500.50 108.58 C 508.61 127.10 511.44 147.45 512.00 167.53 L 512.00 172.55 C 511.25 195.83 504.15 218.66 492.85 238.94 C 481.39 259.88 466.21 278.53 449.62 295.60 C 438.91 306.57 427.60 316.94 416.64 327.66 C 367.40 375.08 318.18 422.50 268.94 469.91 C 264.47 474.61 257.49 476.50 251.25 474.77 C 245.92 473.49 242.30 469.10 238.48 465.50 C 178.08 407.25 117.72 348.94 57.28 290.73 C 46.01 277.86 34.92 264.74 25.84 250.20 C 19.24 240.52 14.11 229.89 10.22 218.85 C 4.12 204.16 0.52 188.40 0.00 172.48 L 0.00 167.62 C 0.54 147.99 3.25 128.12 10.92 109.92 C 17.22 94.51 26.93 80.48 39.30 69.33 C 52.01 57.66 67.50 49.19 83.95 44.09 Z" />
</g>
</svg>
