<?xml version="1.0" encoding="UTF-8" ?>
<!DOCTYPE svg PUBLIC "-//W3C//DTD SVG 1.1//EN" "http://www.w3.org/Graphics/SVG/1.1/DTD/svg11.dtd">
<svg width="512pt" height="512pt" viewBox="0 0 512 512" version="1.1" xmlns="http://www.w3.org/2000/svg">
<g id="#141d28ff">
<path fill="#141d28" opacity="1.00" d=" M 212.39 0.00 L 219.62 0.00 C 249.94 0.57 280.32 7.11 307.66 20.39 C 343.90 36.73 375.59 63.32 397.13 96.82 C 400.33 102.25 403.68 107.60 406.80 113.07 C 409.75 118.89 412.45 124.83 415.30 130.69 C 443.37 194.10 438.30 271.36 401.10 330.03 C 399.10 333.11 397.19 336.23 395.09 339.24 C 429.99 374.57 465.35 409.46 500.33 444.71 C 507.32 451.57 511.43 460.97 512.00 470.74 L 512.00 474.21 C 511.27 494.16 493.56 511.63 473.58 512.00 L 471.54 512.00 C 465.66 511.59 459.72 510.46 454.54 507.54 C 450.25 505.35 446.75 501.99 443.31 498.69 C 408.69 464.15 374.04 429.63 339.43 395.07 C 320.55 407.90 299.89 418.19 277.93 424.57 C 226.67 439.33 169.67 435.30 121.89 411.09 C 116.51 408.62 111.22 405.98 106.25 402.77 C 78.25 386.97 54.33 364.15 36.68 337.32 C 31.67 328.88 26.21 320.67 22.28 311.63 C 7.79 283.27 0.58 251.45 0.00 219.67 L 0.00 212.44 C 0.65 187.16 5.37 161.93 14.70 138.39 C 17.69 130.44 21.75 122.97 25.32 115.28 C 28.68 108.79 32.71 102.68 36.40 96.38 C 51.80 72.71 72.17 52.30 95.76 36.78 C 104.19 31.79 112.37 26.31 121.40 22.40 C 149.48 8.07 180.92 0.76 212.39 0.00 M 199.62 79.83 C 179.28 82.08 159.49 89.09 142.39 100.36 C 125.25 111.86 110.28 126.80 99.23 144.27 C 81.84 171.12 75.97 204.43 80.15 235.91 C 82.74 257.33 90.96 277.99 103.57 295.48 C 115.69 312.15 131.12 326.53 148.97 336.88 C 171.22 349.86 197.39 355.46 223.02 354.19 C 246.77 353.47 270.33 346.26 290.24 333.24 C 309.27 320.66 325.61 303.81 337.04 284.02 C 347.88 265.21 353.69 243.63 354.24 221.95 C 355.47 194.28 348.44 166.13 333.19 142.90 C 318.14 120.16 296.93 101.23 271.95 90.07 C 249.37 80.09 224.06 77.12 199.62 79.83 Z" />
</g>
</svg>
