<?xml version="1.0" encoding="UTF-8" ?>
<!DOCTYPE svg PUBLIC "-//W3C//DTD SVG 1.1//EN" "http://www.w3.org/Graphics/SVG/1.1/DTD/svg11.dtd">
<svg width="512pt" height="512pt" viewBox="0 0 512 512" version="1.1" xmlns="http://www.w3.org/2000/svg">
<g id="#ffffffff">
<path fill="#ffffff" opacity="1.00" d=" M 251.21 0.00 L 253.63 0.00 C 276.02 0.33 298.54 6.19 317.42 18.45 C 342.78 34.69 362.86 59.84 371.02 89.02 C 379.42 119.96 376.45 154.36 360.75 182.54 C 348.62 203.93 330.34 221.87 308.56 233.32 C 280.69 247.81 247.28 250.06 217.19 241.76 C 186.29 232.78 159.98 210.59 144.10 182.82 C 129.29 156.38 125.67 124.36 132.24 94.95 C 138.53 65.83 156.99 40.20 180.88 22.80 C 201.04 7.75 226.18 0.25 251.21 0.00 Z" />
<path fill="#ffffff" opacity="1.00" d=" M 93.85 267.75 C 111.22 253.81 133.74 246.89 155.91 247.45 C 160.54 247.77 164.76 249.96 168.74 252.21 C 178.50 258.04 187.84 264.56 197.55 270.46 C 204.91 274.97 213.15 277.63 221.17 280.67 C 234.26 285.10 248.20 287.17 262.02 286.27 C 274.54 285.53 286.79 282.28 298.37 277.53 C 311.78 273.06 322.98 264.22 334.87 256.87 C 341.21 253.03 347.50 248.25 355.10 247.46 C 381.75 246.68 409.08 256.96 427.06 276.97 C 443.62 295.25 453.67 318.53 459.80 342.20 C 465.77 366.33 468.80 391.16 469.03 416.01 C 469.37 427.13 468.93 438.37 466.20 449.20 C 461.73 468.32 449.91 485.59 433.58 496.53 C 417.92 507.36 398.67 511.80 379.82 512.00 L 131.21 512.00 C 109.79 511.84 87.77 505.82 71.24 491.73 C 55.92 479.21 46.15 460.62 43.35 441.13 C 41.49 429.20 42.02 417.08 42.43 405.07 C 43.17 385.59 45.85 366.21 50.14 347.21 C 53.62 332.70 58.14 318.30 65.18 305.09 C 72.02 290.87 81.59 277.78 93.85 267.75 Z" />
</g>
</svg>
