<?xml version="1.0" encoding="UTF-8" ?>
<!DOCTYPE svg PUBLIC "-//W3C//DTD SVG 1.1//EN" "http://www.w3.org/Graphics/SVG/1.1/DTD/svg11.dtd">
<svg width="512pt" height="512pt" viewBox="0 0 512 512" version="1.1" xmlns="http://www.w3.org/2000/svg">
<g id="#079d66ff">
<path fill="#079d66" opacity="1.00" d=" M 251.33 0.00 L 253.58 0.00 C 270.62 0.36 287.76 3.54 303.27 10.76 C 323.79 20.09 341.26 35.47 354.28 53.76 C 382.97 94.45 382.79 153.24 353.70 193.67 C 340.57 211.94 322.90 227.14 302.29 236.32 C 280.06 246.26 254.86 248.64 230.93 244.80 C 208.45 241.25 187.25 230.72 170.49 215.39 C 156.25 202.71 144.69 186.89 137.59 169.15 C 127.52 143.47 126.50 114.47 134.00 87.98 C 142.87 57.31 164.90 31.23 192.36 15.36 C 210.22 5.10 230.83 0.30 251.33 0.00 Z" />
<path fill="#079d66" opacity="1.00" d=" M 105.08 260.11 C 120.11 251.40 137.57 247.24 154.90 247.40 C 158.92 247.46 162.72 248.98 166.23 250.83 C 179.20 257.94 190.84 267.31 204.08 273.94 C 217.12 279.65 230.73 284.59 245.01 285.92 C 262.92 287.88 281.15 284.65 297.74 277.77 C 311.83 273.14 323.55 263.81 336.03 256.13 C 342.24 252.36 348.55 247.73 356.08 247.41 C 377.03 247.12 398.20 253.35 415.03 265.98 C 431.91 278.70 443.23 297.29 451.36 316.49 C 454.43 324.17 457.16 331.98 459.18 340.00 C 465.84 365.43 468.88 391.73 469.07 418.00 C 469.44 430.90 468.34 444.01 464.14 456.30 C 458.48 473.57 446.49 488.55 431.10 498.17 C 416.35 507.55 398.80 511.52 381.48 512.00 L 130.49 512.00 C 111.18 511.67 91.48 506.79 75.74 495.24 C 60.07 484.09 48.91 466.99 44.73 448.24 C 41.32 434.08 41.92 419.40 42.44 404.97 C 43.23 384.43 46.15 364.01 50.90 344.02 C 54.33 330.59 58.66 317.29 65.20 305.03 C 74.03 286.84 87.29 270.18 105.08 260.11 Z" />
</g>
</svg>
