<?xml version="1.0" encoding="UTF-8" ?>
<!DOCTYPE svg PUBLIC "-//W3C//DTD SVG 1.1//EN" "http://www.w3.org/Graphics/SVG/1.1/DTD/svg11.dtd">
<svg width="512pt" height="512pt" viewBox="0 0 512 512" version="1.1" xmlns="http://www.w3.org/2000/svg">
<g id="#141d28ff">
<path fill="#141d28" opacity="1.00" d=" M 250.39 0.00 L 254.48 0.00 C 263.74 0.39 273.03 1.25 282.05 3.50 C 306.00 9.01 327.66 22.76 343.99 40.98 C 356.58 54.60 365.98 71.17 371.02 89.02 C 377.36 112.23 377.15 137.25 370.23 160.30 C 362.33 186.10 345.04 208.52 323.28 224.24 C 304.40 237.98 281.32 245.67 258.00 246.40 C 231.02 247.73 203.45 240.35 181.55 224.33 C 162.27 210.39 146.45 191.32 137.59 169.14 C 128.38 145.72 126.78 119.51 132.21 95.00 C 139.49 61.63 162.49 32.81 191.73 15.73 C 209.45 5.36 229.96 0.46 250.39 0.00 Z" />
<path fill="#141d28" opacity="1.00" d=" M 102.59 261.59 C 118.17 251.90 136.61 247.21 154.90 247.40 C 161.91 247.61 167.91 251.71 173.69 255.24 C 186.45 262.96 198.30 272.58 212.58 277.45 C 219.57 280.19 226.68 282.74 234.07 284.19 C 255.05 288.80 277.26 286.24 297.02 278.03 C 315.44 272.04 329.87 258.47 346.94 249.83 C 353.45 246.35 361.03 247.40 368.07 247.98 C 389.15 250.06 409.71 259.19 424.61 274.38 C 432.45 282.44 439.10 291.68 444.27 301.68 C 459.56 329.92 465.27 362.18 468.10 393.84 C 469.12 414.41 471.02 435.69 464.38 455.58 C 458.51 474.06 445.43 489.99 428.66 499.64 C 414.70 507.87 398.48 511.36 382.43 512.00 L 129.56 512.00 C 118.20 511.55 106.78 509.96 96.08 505.99 C 78.79 499.75 63.54 487.64 54.14 471.78 C 46.01 458.34 42.46 442.57 42.11 426.98 C 41.63 393.63 45.35 359.99 55.44 328.12 C 58.16 320.77 60.71 313.31 64.50 306.42 C 73.00 288.56 85.56 272.05 102.59 261.59 Z" />
</g>
</svg>
