<?xml version="1.0" encoding="UTF-8" ?>
<!DOCTYPE svg PUBLIC "-//W3C//DTD SVG 1.1//EN" "http://www.w3.org/Graphics/SVG/1.1/DTD/svg11.dtd">
<svg width="512pt" height="512pt" viewBox="0 0 512 512" version="1.1" xmlns="http://www.w3.org/2000/svg">
<g id="#079d66ff">
<path fill="#079d66" opacity="1.00" d=" M 254.33 0.00 L 258.51 0.00 C 271.64 0.56 284.54 5.07 295.09 12.92 C 333.27 40.73 371.41 68.58 409.54 96.45 C 427.98 109.81 439.34 132.25 439.19 155.02 C 439.22 243.02 439.20 331.02 439.20 419.02 C 439.09 429.79 439.85 440.72 437.31 451.29 C 433.08 470.52 421.14 487.86 404.79 498.80 C 392.44 507.16 377.62 511.74 362.72 512.00 L 149.30 512.00 C 130.57 511.75 112.06 504.41 98.25 491.75 C 85.46 480.19 76.69 464.27 73.88 447.25 C 72.44 439.26 72.85 431.12 72.79 423.04 C 72.80 333.70 72.78 244.36 72.80 155.02 C 72.66 132.48 83.81 110.24 101.96 96.88 C 138.20 70.46 174.50 44.12 210.74 17.71 C 216.20 13.78 221.54 9.56 227.66 6.67 C 235.94 2.55 245.11 0.38 254.33 0.00 M 250.43 76.65 C 245.74 78.49 242.01 82.52 240.49 87.32 C 237.73 95.40 242.17 105.00 250.09 108.15 C 258.06 111.76 268.31 107.91 271.99 99.99 C 275.13 93.82 273.93 85.81 269.13 80.83 C 264.52 75.79 256.76 74.08 250.43 76.65 M 180.55 194.69 C 163.60 198.30 149.24 211.75 144.61 228.45 C 140.09 243.86 143.88 261.42 154.55 273.46 C 164.21 284.72 179.27 291.04 194.07 289.98 C 207.52 289.25 220.45 282.46 228.77 271.88 C 236.81 261.90 240.53 248.60 238.90 235.89 C 237.24 221.54 228.67 208.21 216.33 200.72 C 205.80 194.12 192.65 192.02 180.55 194.69 M 313.44 228.62 C 311.16 229.44 309.15 230.86 307.44 232.56 C 267.13 272.86 226.83 313.17 186.52 353.47 C 183.69 356.32 180.46 359.10 179.15 363.04 C 176.39 370.41 180.07 379.41 187.13 382.85 C 193.18 385.98 201.12 384.69 205.85 379.77 C 247.34 338.31 288.83 296.84 330.29 255.34 C 335.43 250.46 336.70 242.12 333.19 235.95 C 329.56 229.06 320.68 225.85 313.44 228.62 M 310.54 324.67 C 293.60 328.25 279.27 341.71 274.61 358.37 C 270.43 372.65 273.28 388.80 282.29 400.67 C 290.60 411.89 303.97 419.17 317.92 419.95 C 330.12 420.82 342.63 416.84 351.91 408.84 C 361.46 400.98 367.87 389.35 369.03 377.00 C 370.86 359.65 362.67 341.57 348.19 331.75 C 337.37 324.23 323.35 321.88 310.54 324.67 Z" />
<path fill="#079d66" opacity="1.00" d=" M 186.39 226.47 C 194.12 223.98 203.19 228.36 205.90 236.04 C 209.17 243.74 205.07 253.35 197.38 256.52 C 188.92 260.48 177.75 255.21 175.55 246.10 C 173.12 238.01 178.27 228.72 186.39 226.47 Z" />
<path fill="#079d66" opacity="1.00" d=" M 316.34 356.47 C 325.45 353.37 336.05 360.39 336.89 369.93 C 338.13 378.33 331.50 386.79 323.08 387.68 C 314.74 388.89 306.07 382.54 305.15 374.07 C 303.86 366.48 308.98 358.57 316.34 356.47 Z" />
</g>
</svg>
