<?xml version="1.0" encoding="UTF-8" ?>
<!DOCTYPE svg PUBLIC "-//W3C//DTD SVG 1.1//EN" "http://www.w3.org/Graphics/SVG/1.1/DTD/svg11.dtd">
<svg width="512pt" height="512pt" viewBox="0 0 512 512" version="1.1" xmlns="http://www.w3.org/2000/svg">
<g id="#079d66ff">
<path fill="#079d66" opacity="1.00" d=" M 249.42 0.00 L 262.53 0.00 C 297.01 1.05 331.38 8.66 362.69 23.25 C 415.03 47.04 458.64 89.25 484.52 140.55 C 503.62 178.26 513.05 220.79 511.75 263.03 C 510.35 319.92 489.03 375.94 452.64 419.65 C 466.78 418.73 480.91 417.66 495.04 416.78 C 503.93 416.13 512.15 424.06 511.89 432.96 C 512.08 441.36 504.79 448.90 496.42 449.13 C 468.28 451.05 440.13 453.04 411.99 454.90 C 403.59 455.51 395.54 448.52 395.07 440.10 C 393.97 425.12 392.99 410.13 391.96 395.15 C 403.38 383.89 413.51 371.32 421.89 357.65 C 422.84 372.50 423.90 387.35 424.93 402.21 C 449.85 373.40 467.29 338.17 474.89 300.83 C 485.01 252.02 478.22 199.84 455.65 155.37 C 440.85 125.93 419.42 99.86 393.43 79.62 C 364.55 57.02 330.00 41.71 293.84 35.61 C 257.86 29.51 220.38 32.24 185.73 43.71 C 151.19 55.10 119.55 75.11 94.47 101.44 C 65.99 131.06 46.00 168.72 37.46 208.92 C 28.60 250.76 31.62 295.16 46.69 335.23 C 58.11 365.69 76.54 393.45 100.00 415.97 C 138.76 453.41 191.20 476.38 245.04 479.15 C 284.69 481.36 324.80 472.39 359.87 453.83 C 364.84 450.99 371.19 450.95 376.15 453.83 C 382.36 457.25 385.65 465.11 383.71 471.94 C 382.61 476.14 379.81 479.87 375.97 481.96 C 341.19 500.66 301.99 510.91 262.53 512.00 L 252.42 512.00 C 230.60 511.47 208.82 508.38 187.81 502.42 C 139.58 488.93 95.39 461.23 62.42 423.50 C 39.16 396.96 21.54 365.49 11.27 331.72 C -1.94 288.27 -3.48 241.30 6.88 197.08 C 16.10 157.52 35.08 120.32 61.56 89.53 C 82.01 65.60 106.93 45.53 134.61 30.53 C 169.78 11.48 209.47 1.15 249.42 0.00 Z" />
<path fill="#079d66" opacity="1.00" d=" M 159.11 87.17 C 188.65 70.04 222.82 61.13 256.96 61.33 C 292.39 61.36 327.85 71.09 357.97 89.85 C 388.94 108.96 414.13 137.11 430.21 169.72 C 444.95 199.44 452.15 232.93 450.49 266.09 C 448.98 298.23 438.97 329.83 422.13 357.21 C 421.23 353.84 421.69 350.13 419.88 347.01 C 416.34 339.61 406.86 335.92 399.29 339.20 C 393.08 341.70 388.71 348.33 389.22 355.07 C 390.08 368.43 391.05 381.78 391.95 395.14 C 364.21 422.21 328.31 440.87 290.09 447.50 C 242.73 455.98 192.32 446.22 151.80 420.21 C 122.33 401.57 98.05 374.82 82.33 343.69 C 67.81 315.18 60.64 283.00 61.51 251.02 C 62.26 216.25 72.65 181.74 91.25 152.35 C 108.11 125.53 131.62 102.92 159.11 87.17 M 108.39 196.47 C 99.07 202.70 92.28 212.93 90.83 224.10 C 90.21 229.15 91.02 235.26 95.52 238.37 C 101.46 242.47 110.88 239.13 112.43 231.94 C 113.03 227.77 113.04 223.26 115.71 219.75 C 120.63 211.97 132.27 209.94 139.50 215.66 C 146.82 220.88 148.43 232.06 143.44 239.41 C 139.45 245.88 132.50 249.45 126.00 252.89 C 105.23 264.36 91.33 287.19 90.73 310.91 C 90.72 316.79 96.11 321.86 101.95 321.58 C 120.33 321.62 138.71 321.61 157.09 321.58 C 162.94 321.88 168.36 316.86 168.39 310.97 C 168.80 305.20 163.93 299.70 158.13 299.54 C 143.72 299.35 129.31 299.53 114.90 299.46 C 118.74 287.26 127.63 276.80 139.06 271.08 C 149.81 265.83 159.58 257.67 164.64 246.63 C 169.78 235.72 169.66 222.51 164.27 211.72 C 160.25 203.50 153.26 196.72 144.79 193.21 C 133.10 188.32 118.96 189.38 108.39 196.47 M 228.32 196.36 C 215.44 220.45 202.58 244.55 189.71 268.65 C 187.62 272.75 185.22 276.72 183.64 281.06 C 182.11 287.43 187.49 294.18 194.04 294.15 C 206.90 294.28 219.77 294.15 232.63 294.21 C 232.67 299.79 232.54 305.37 232.67 310.94 C 232.63 316.53 237.54 321.50 243.11 321.58 C 248.64 321.92 254.02 317.51 254.47 311.93 C 254.77 306.03 254.49 300.11 254.60 294.20 C 258.74 294.20 263.44 294.71 266.82 291.79 C 272.13 287.81 272.17 279.08 267.05 274.92 C 263.70 271.73 258.83 272.24 254.60 272.26 C 254.58 248.81 254.60 225.36 254.59 201.91 C 254.75 198.11 253.04 194.22 249.80 192.13 C 246.36 189.69 241.93 190.18 237.94 190.22 C 233.89 190.20 230.08 192.74 228.32 196.36 M 315.50 190.71 C 311.78 191.86 308.79 195.10 308.13 198.96 C 301.03 233.97 294.07 269.00 287.01 304.02 C 286.55 306.31 285.96 308.61 285.90 310.97 C 286.03 316.01 289.98 320.72 295.03 321.47 C 300.59 322.63 306.48 318.53 307.47 312.96 C 314.76 276.96 321.98 240.93 329.18 204.91 C 330.12 201.40 329.70 197.45 327.45 194.52 C 324.82 190.85 319.76 189.33 315.50 190.71 M 344.78 200.00 C 344.00 205.95 348.91 211.97 354.97 212.08 C 367.50 212.22 380.04 212.09 392.58 212.14 C 378.23 240.90 363.84 269.64 349.50 298.41 C 347.87 301.92 345.90 305.31 344.78 309.04 C 344.05 313.78 346.65 318.88 351.18 320.66 C 356.36 323.04 363.08 320.72 365.42 315.45 C 383.68 278.99 401.92 242.50 420.13 206.01 C 423.76 199.45 418.56 190.28 411.01 190.24 C 392.65 190.15 374.29 190.20 355.94 190.22 C 350.41 189.95 345.19 194.45 344.78 200.00 Z" />
<path fill="#079d66" opacity="1.00" d=" M 212.54 272.26 C 219.22 259.74 225.91 247.24 232.62 234.74 C 232.62 247.25 232.65 259.76 232.61 272.27 C 225.92 272.25 219.23 272.28 212.54 272.26 Z" />
</g>
</svg>
