<?xml version="1.0" encoding="UTF-8" ?>
<!DOCTYPE svg PUBLIC "-//W3C//DTD SVG 1.1//EN" "http://www.w3.org/Graphics/SVG/1.1/DTD/svg11.dtd">
<svg width="512pt" height="512pt" viewBox="0 0 512 512" version="1.1" xmlns="http://www.w3.org/2000/svg">
<g id="#079d66ff">
<path fill="#079d66" opacity="1.00" d=" M 20.77 41.72 C 33.41 29.08 51.19 21.82 69.06 21.88 C 175.03 21.85 281.00 21.88 386.98 21.86 C 393.02 21.82 399.10 21.88 405.06 23.01 C 426.67 26.80 445.78 41.68 455.15 61.47 C 451.10 61.05 447.02 60.92 442.95 60.93 C 319.98 60.62 197.00 60.89 74.03 60.80 C 67.62 60.76 61.18 60.89 54.82 61.83 C 34.41 64.64 15.14 74.11 0.00 88.01 L 0.00 83.04 L 0.13 86.18 C 1.33 69.50 8.73 53.35 20.77 41.72 Z" />
<path fill="#079d66" opacity="1.00" d=" M 24.50 109.50 C 36.79 99.04 52.83 93.06 68.98 93.13 C 190.98 93.14 312.98 93.13 434.97 93.14 C 440.96 93.16 446.99 92.90 452.93 93.86 C 470.32 96.32 486.51 105.83 497.28 119.67 C 506.08 130.76 511.08 144.60 512.00 158.69 L 512.00 218.60 C 467.00 218.60 422.00 218.59 377.00 218.61 C 363.68 218.56 350.36 222.15 338.93 229.01 C 324.89 237.37 313.71 250.45 307.79 265.69 C 300.78 283.40 301.06 303.84 308.53 321.36 C 319.36 347.67 346.45 366.29 374.95 366.58 C 420.63 366.63 466.32 366.59 512.00 366.60 L 512.00 424.26 C 511.12 439.56 505.27 454.55 495.18 466.12 C 482.33 481.17 462.78 490.19 442.99 490.12 C 318.33 490.14 193.67 490.14 69.01 490.12 C 49.71 490.18 30.63 481.61 17.80 467.21 C 7.14 455.55 0.92 440.13 0.00 424.40 L 0.00 158.79 C 1.03 139.92 9.99 121.65 24.50 109.50 Z" />
<path fill="#079d66" opacity="1.00" d=" M 346.70 263.73 C 354.50 255.56 365.71 250.81 377.01 250.94 C 422.01 250.93 467.00 250.94 512.00 250.93 L 512.00 334.33 C 467.00 334.32 422.00 334.35 377.01 334.32 C 367.33 334.38 357.69 330.96 350.24 324.77 C 341.37 317.54 335.71 306.51 335.11 295.07 C 334.36 283.61 338.68 271.95 346.70 263.73 M 378.40 277.59 C 372.52 279.09 367.69 284.04 366.35 289.97 C 363.78 299.47 371.27 309.92 381.08 310.58 C 390.89 311.85 400.28 302.90 399.50 293.05 C 399.36 282.73 388.30 274.61 378.40 277.59 Z" />
</g>
</svg>
