<svg width="36" height="37" viewBox="0 0 36 37" fill="none" xmlns="http://www.w3.org/2000/svg">
<path d="M11.3884 20.7004L10.9815 18.9692C10.2923 16.0367 12.5174 13.228 15.5297 13.228H15.5297H26.6587V13.228C26.6587 16.6653 24.6764 19.7943 21.5685 21.2626L20.1055 21.9537L14.5946 24.5572" stroke="#54D600" stroke-width="2" stroke-miterlimit="10" stroke-linecap="round" stroke-linejoin="round"/>
<path d="M11.3884 20.7002L8.73471 10.1084H6.51953" stroke="#54D600" stroke-width="2" stroke-miterlimit="10" stroke-linecap="round" stroke-linejoin="round"/>
<path d="M12.5587 27.8914C13.8252 27.8914 14.8518 26.8647 14.8518 25.5983C14.8518 24.3318 13.8252 23.3052 12.5587 23.3052C11.2923 23.3052 10.2656 24.3318 10.2656 25.5983C10.2656 26.8647 11.2923 27.8914 12.5587 27.8914Z" stroke="#54D600" stroke-width="2" stroke-miterlimit="10" stroke-linecap="round" stroke-linejoin="round"/>
<path d="M25.4454 27.8914C26.7119 27.8914 27.7385 26.8647 27.7385 25.5983C27.7385 24.3318 26.7119 23.3052 25.4454 23.3052C24.179 23.3052 23.1523 24.3318 23.1523 25.5983C23.1523 26.8647 24.179 27.8914 25.4454 27.8914Z" stroke="#54D600" stroke-width="2" stroke-miterlimit="10" stroke-linecap="round" stroke-linejoin="round"/>
</svg>
