<svg xmlns="http://www.w3.org/2000/svg" viewBox="0 0 284.6 195.53"><defs><style>.cls-1{fill:#fff;}</style></defs><g id="Слой_1" data-name="Слой 1"><g id="_ffffffff" data-name="#ffffffff"><path class="cls-1" d="M125.4,45.57c3.71-1.36,7.73-1,11.6-1.07q119.51,0,239,0c4,0,8.23-.24,11.87,1.66a18.38,18.38,0,0,1,9.81,13.39q-70.24,46.32-140.54,92.59c-1.65,1.4-3.22-.82-4.66-1.49q-69-45.49-138.11-90.95A17.77,17.77,0,0,1,125.4,45.57Z" transform="translate(-113.71 -44.49)"/><path class="cls-1" d="M113.79,80.39c21.57,14.5,43.38,28.63,65.05,43,10.11,6.56,20,13.41,30.25,19.79-.14.3-.44.89-.59,1.18-31.37,20.11-63.08,39.7-94.38,59.9-.77-5.13-.19-10.35-.38-15.52q0-34.4,0-68.8C113.77,106.75,113.7,93.57,113.79,80.39Z" transform="translate(-113.71 -44.49)"/><path class="cls-1" d="M302.32,143.8c31.84-21.32,64.06-42.06,95.88-63.41.12,12.44,0,24.88.06,37.32,0,23.69,0,47.38,0,71.07-.25,5.12.5,10.32-.4,15.39Q350.19,173.81,302.32,143.8Z" transform="translate(-113.71 -44.49)"/><path class="cls-1" d="M114.42,225Q170.13,189.63,226,154.44c6.2,3.95,12.25,8.14,18.45,12.11,3,2,5.94,4.3,9.37,5.6,3,.86,5.91-.35,8.35-2,8-5.22,15.9-10.56,23.92-15.73q55.8,35.22,111.51,70.56-.33,1.62-.72,3.24c-2.49,6.85-9.37,12.05-16.79,11.73q-121,.08-242.08,0a71,71,0,0,1-9.68-.33,17.92,17.92,0,0,1-13.12-11.41C114.88,227.18,114.64,226.1,114.42,225Z" transform="translate(-113.71 -44.49)"/></g></g></svg>