<?xml version="1.0" encoding="UTF-8" ?>
<!DOCTYPE svg PUBLIC "-//W3C//DTD SVG 1.1//EN" "http://www.w3.org/Graphics/SVG/1.1/DTD/svg11.dtd">
<svg width="576pt" height="512pt" viewBox="0 0 576 512" version="1.1" xmlns="http://www.w3.org/2000/svg">
<g id="#455e40fe">
<path fill="#455e40" opacity="1.00" d=" M 168.41 0.00 L 193.61 0.00 C 229.25 5.55 259.96 27.10 285.35 51.65 C 289.55 55.33 293.26 48.57 296.26 46.27 C 306.89 35.59 319.71 27.55 332.06 19.07 C 347.28 9.29 364.60 3.09 382.39 0.00 L 407.50 0.00 C 412.18 1.99 417.53 1.01 422.38 2.53 C 447.96 6.82 472.65 19.55 488.61 40.35 C 505.23 60.62 511.44 87.27 512.05 112.99 C 512.62 136.91 505.22 160.57 493.00 180.98 C 480.75 202.22 464.29 220.73 446.70 237.68 C 435.80 246.40 427.14 257.54 416.40 266.43 C 406.69 275.02 398.41 285.14 388.30 293.30 C 379.63 301.29 372.03 310.44 362.83 317.85 C 354.89 325.23 347.59 333.26 339.69 340.68 C 327.47 350.74 317.55 363.27 305.26 373.26 C 299.96 379.10 293.24 386.36 284.38 383.60 C 277.82 382.60 274.47 376.16 269.69 372.32 C 257.30 362.09 247.19 349.42 234.83 339.16 C 224.86 329.80 215.78 319.50 205.26 310.73 C 189.87 294.76 173.12 280.24 157.75 264.25 C 145.28 254.11 135.23 241.38 122.77 231.23 C 102.10 210.26 82.44 186.75 72.46 158.63 C 60.53 129.96 61.86 96.99 71.98 67.99 C 80.34 44.13 98.45 24.28 120.99 12.98 C 135.84 5.79 152.12 2.11 168.41 0.00 Z" />
</g>
</svg>
