<?xml version="1.0" encoding="UTF-8" ?>
<!DOCTYPE svg PUBLIC "-//W3C//DTD SVG 1.1//EN" "http://www.w3.org/Graphics/SVG/1.1/DTD/svg11.dtd">
<svg width="576pt" height="512pt" viewBox="0 0 576 512" version="1.1" xmlns="http://www.w3.org/2000/svg">
<g id="#959595fe">
<path fill="#455e40" opacity="1.00" d=" M 169.41 0.00 L 192.60 0.00 C 230.03 5.09 261.50 28.66 288.00 54.10 C 303.17 38.92 320.54 25.95 339.01 15.03 C 352.70 7.05 368.09 2.83 383.50 0.00 L 406.50 0.00 C 409.77 1.53 413.48 1.33 416.99 1.94 C 437.38 4.24 457.06 12.17 473.28 24.73 C 486.41 36.00 497.39 50.32 503.30 66.70 C 517.47 103.06 514.19 145.56 494.17 179.11 C 480.46 202.81 462.13 223.63 441.73 241.73 C 434.78 248.46 428.41 255.82 420.83 261.85 C 411.11 270.78 402.54 280.94 392.30 289.30 C 383.63 297.29 376.03 306.44 366.83 313.85 C 358.89 321.23 351.59 329.26 343.69 336.68 C 331.63 346.57 321.89 358.94 309.78 368.78 C 303.37 373.93 298.85 382.89 289.99 384.00 C 279.60 385.34 273.45 375.30 266.75 369.25 C 254.47 359.25 244.46 346.80 232.40 336.57 C 222.69 327.97 214.36 317.90 204.40 309.57 C 195.43 301.58 187.57 292.44 178.62 284.43 C 168.64 276.11 160.31 266.05 150.62 257.43 C 139.34 248.06 130.22 236.37 118.76 227.23 C 103.55 211.12 89.49 193.60 78.99 174.01 C 71.83 158.47 65.97 142.09 64.08 124.99 C 63.39 109.19 65.35 93.30 68.89 77.91 C 75.72 51.36 93.53 27.69 117.89 14.83 C 133.62 5.90 151.71 2.54 169.41 0.00 Z" />
</g>
</svg>
