<?xml version="1.0" encoding="UTF-8" ?>
<!DOCTYPE svg PUBLIC "-//W3C//DTD SVG 1.1//EN" "http://www.w3.org/Graphics/SVG/1.1/DTD/svg11.dtd">
<svg width="576pt" height="512pt" viewBox="0 0 576 512" version="1.1" xmlns="http://www.w3.org/2000/svg">
<g id="#b40101ff">
<path fill="#b40101" opacity="1.00" d=" M 176.79 0.00 L 194.32 0.00 C 195.24 0.27 197.07 0.82 197.99 1.09 C 217.17 4.16 235.29 12.46 251.02 23.74 C 264.26 32.57 276.69 42.61 287.99 53.82 C 297.91 44.06 308.59 35.07 320.03 27.14 C 326.82 22.50 333.50 17.63 340.83 13.86 C 353.29 7.24 366.85 2.53 380.84 0.58 C 399.35 -0.56 418.23 0.20 436.05 5.71 C 465.22 13.56 490.67 35.01 502.12 63.12 C 508.18 76.60 510.56 91.36 511.82 105.98 C 512.04 115.65 512.60 125.46 510.41 134.96 C 507.77 152.30 500.67 168.66 491.67 183.61 C 479.58 203.56 463.90 221.06 447.04 237.09 C 400.71 281.75 354.34 326.37 308.00 371.01 C 304.19 374.57 300.78 378.60 296.52 381.65 C 292.69 384.43 287.57 384.26 283.13 383.42 C 277.44 381.46 273.76 376.35 269.46 372.44 C 219.12 323.81 168.72 275.24 118.35 226.64 C 112.14 221.13 107.23 214.38 101.78 208.16 C 91.79 195.56 82.29 182.32 75.84 167.50 C 72.87 159.32 69.17 151.37 67.24 142.84 C 63.20 127.21 63.15 110.81 65.42 94.90 C 67.48 77.56 73.31 60.57 83.07 46.05 C 91.80 33.26 103.54 22.51 117.12 15.06 C 135.29 4.96 156.18 0.77 176.79 0.00 Z" />
</g>
</svg>
