<svg xmlns="http://www.w3.org/2000/svg" viewBox="0 0 185.59 309.43"><defs><style>.cls-1{fill:#fff;}</style></defs><title>left_arrow</title><g id="Слой_2" data-name="Слой 2"><g id="Слой_1-2" data-name="Слой 1"><path class="cls-1" d="M149.5.53a17.83,17.83,0,0,1,8.71,0c12,1.46,22.44,11.2,25,23,2.44,9.55-.63,20.24-7.36,27.39C141.47,85.43,107,119.75,72.7,154.31A23,23,0,0,1,76.8,158q50,50,100,100a29.74,29.74,0,0,1,8.49,18.54,14.34,14.34,0,0,1,.24,5,31.47,31.47,0,0,1-13.93,23.1,32.76,32.76,0,0,1-8.4,3.63,28.21,28.21,0,0,1-15.67,0,30.33,30.33,0,0,1-14.44-8.64q-62-61.94-123.94-123.87a33.21,33.21,0,0,1-8-13.14C-1.76,152.29,1,140.48,8.7,132.86Q70.41,71.09,132.17,9.34A29.2,29.2,0,0,1,149.5.53Z"/></g></g></svg>