<svg xmlns="http://www.w3.org/2000/svg" viewBox="0 0 208.92 348.1"><defs><style>.cls-1{fill:#5b6e86;}</style></defs><title>left_arrow2</title><g id="Слой_2" data-name="Слой 2"><g id="Слой_1-2" data-name="Слой 1"><path class="cls-1" d="M167.4.69c10.83-2.5,21.95,2.1,29.93,9.26,12.18,12.25,13.41,34,1,46.53-27.19,26.82-53.72,54.29-80.88,81.13-10.64,12.6-23.61,23.27-34.44,35.62,26.58,27.57,54.31,54.43,81.32,81.74,11.22,10.82,21.41,22.56,32.68,33.33,10.76,9.25,15.41,25.86,9,38.92-6.23,15.72-25.9,25.24-41.9,18.89-6.77-1.57-11.54-7-16.68-11.3C107.13,294.47,66.89,254.05,26.31,214,16.23,203.35,2.5,193.5.45,177.89-2.22,163.06,7.5,150.27,17.81,141Q83,75.69,148.28,10.44A36.07,36.07,0,0,1,167.4.69Z"/></g></g></svg>