<?xml version="1.0" encoding="UTF-8" ?>
<!DOCTYPE svg PUBLIC "-//W3C//DTD SVG 1.1//EN" "http://www.w3.org/Graphics/SVG/1.1/DTD/svg11.dtd">
<svg width="250pt" height="380pt" viewBox="120 20 250 380" version="1.1" xmlns="http://www.w3.org/2000/svg">
<g id="#ffffffff">
<path fill="#ffffff" opacity="1.00" d=" M 313.98 24.82 C 323.40 19.97 334.92 18.97 344.81 23.04 C 351.66 25.53 357.45 30.43 361.76 36.25 C 370.18 48.00 370.73 64.78 362.95 76.98 C 359.62 82.51 354.51 86.56 350.12 91.19 C 321.52 119.87 292.89 148.52 264.29 177.19 C 253.55 187.82 243.11 198.76 232.13 209.14 C 232.84 210.00 233.56 210.87 234.34 211.68 C 275.97 253.37 317.66 295.00 359.26 336.70 C 365.05 342.42 368.95 350.03 369.94 358.13 C 370.48 361.34 370.54 364.67 369.98 367.88 C 369.52 372.18 367.90 376.20 366.19 380.12 C 361.81 388.23 354.56 394.76 345.83 397.84 C 334.93 401.84 322.10 400.33 312.55 393.67 C 307.93 390.68 304.43 386.34 300.47 382.59 C 253.78 335.92 207.10 289.25 160.41 242.59 C 157.02 238.99 153.18 235.80 150.19 231.85 C 148.38 229.47 146.95 226.86 145.63 224.19 C 141.14 213.50 141.72 200.78 147.71 190.78 C 150.51 185.76 154.87 181.91 158.86 177.87 C 207.53 129.21 256.15 80.51 304.82 31.86 C 307.52 29.08 310.64 26.77 313.98 24.82 Z" />
</g>
</svg>
