<?xml version="1.0" encoding="UTF-8" ?>
<!DOCTYPE svg PUBLIC "-//W3C//DTD SVG 1.1//EN" "http://www.w3.org/Graphics/SVG/1.1/DTD/svg11.dtd">
<svg width="512pt" height="512pt" viewBox="0 0 512 512" version="1.1" xmlns="http://www.w3.org/2000/svg">
<g id="#ffffffff">
<path fill="#ffffff" opacity="1.00" d=" M 239.16 28.65 C 260.89 24.67 284.01 28.60 303.15 39.66 C 322.05 50.41 337.01 67.86 344.76 88.18 C 349.75 101.29 351.90 115.53 350.73 129.52 C 348.26 154.34 338.08 177.58 326.49 199.38 C 307.01 235.11 282.64 268.01 255.99 298.69 C 232.21 271.37 210.42 242.22 192.00 211.00 C 182.70 194.99 174.30 178.36 168.29 160.81 C 164.26 148.96 161.37 136.62 160.96 124.08 C 160.52 102.75 167.47 81.33 180.52 64.43 C 194.73 45.79 216.04 32.65 239.16 28.65 M 250.44 88.70 C 239.72 90.38 230.06 97.63 225.43 107.44 C 221.69 115.03 221.09 124.04 223.54 132.12 C 226.67 142.48 235.06 151.05 245.35 154.42 C 259.37 159.33 276.03 153.51 284.14 141.12 C 290.54 131.81 291.74 119.21 287.21 108.85 C 281.47 94.74 265.44 85.93 250.44 88.70 Z" />
</g>
</svg>
