<?xml version="1.0" encoding="UTF-8" ?>
<!DOCTYPE svg PUBLIC "-//W3C//DTD SVG 1.1//EN" "http://www.w3.org/Graphics/SVG/1.1/DTD/svg11.dtd">
<svg width="512pt" height="512pt" viewBox="64 53 380 238" version="1.1" xmlns="http://www.w3.org/2000/svg">
    <g id="#ffffffff">
        <path fill="#ffffff" opacity="1.00"
              d=" M 150.79 0.00 L 153.14 0.00 C 161.96 0.44 170.57 4.00 176.99 10.08 C 192.14 25.24 207.30 40.40 222.46 55.55 C 225.30 58.41 227.84 61.62 229.62 65.24 C 236.04 78.06 232.81 95.32 221.26 104.16 C 216.08 108.58 208.97 109.44 203.53 113.43 C 193.05 120.53 187.08 134.54 191.14 146.84 C 194.27 159.00 200.48 170.10 207.76 180.24 C 221.83 199.28 239.63 215.80 260.35 227.37 C 269.51 232.04 279.46 236.90 290.04 235.68 C 300.07 234.54 309.72 228.75 314.65 219.81 C 317.02 215.64 318.04 210.82 320.82 206.87 C 326.87 197.74 338.12 192.61 348.97 193.48 C 356.88 193.80 364.36 197.55 369.94 203.06 C 385.29 218.35 400.57 233.70 415.91 248.99 C 418.72 251.95 421.42 255.11 423.11 258.86 C 428.57 270.13 426.59 284.23 419.10 294.11 C 416.95 297.23 414.06 299.72 411.42 302.42 C 402.76 311.08 394.12 319.75 385.44 328.39 C 377.77 336.37 366.83 340.02 356.06 341.18 C 350.73 341.47 345.34 341.67 340.08 340.68 C 320.26 338.29 301.43 330.99 283.64 322.20 C 262.34 311.40 242.40 298.08 223.62 283.36 C 197.01 262.28 172.60 238.44 150.86 212.36 C 131.76 189.18 114.65 164.17 101.92 136.90 C 94.02 119.87 87.84 101.80 86.01 83.03 C 84.79 68.53 87.03 52.44 97.42 41.47 C 108.05 30.74 118.76 20.10 129.45 9.43 C 135.05 3.71 142.85 0.50 150.79 0.00 Z"/>
    </g>
</svg>
