<?xml version="1.0" encoding="UTF-8" ?>
<!DOCTYPE svg PUBLIC "-//W3C//DTD SVG 1.1//EN" "http://www.w3.org/Graphics/SVG/1.1/DTD/svg11.dtd">
<svg width="512pt" height="512pt" viewBox="0 0 512 512" version="1.1" xmlns="http://www.w3.org/2000/svg">
<g id="#ffffffff">
<path fill="#ffffff" opacity="1.00" d=" M 150.24 36.24 C 157.01 26.79 168.27 20.49 179.99 20.54 C 190.11 20.22 200.17 24.59 207.17 31.85 C 256.02 80.68 304.81 129.56 353.66 178.39 C 357.37 182.13 361.36 185.73 364.03 190.34 C 370.24 200.44 370.90 213.38 366.35 224.28 C 365.03 226.91 363.56 229.47 361.84 231.86 C 358.15 236.45 353.67 240.31 349.61 244.56 C 303.26 290.89 256.90 337.22 210.56 383.57 C 206.82 387.13 203.48 391.19 199.06 393.94 C 189.53 400.39 176.96 401.72 166.17 397.91 C 163.60 396.90 161.16 395.62 158.78 394.24 C 149.66 388.45 143.46 378.54 141.96 367.87 C 141.56 364.64 141.49 361.35 142.04 358.14 C 143.07 350.05 146.93 342.43 152.73 336.72 C 194.17 295.16 235.70 253.69 277.19 212.16 C 278.00 211.17 279.39 210.47 279.60 209.11 C 239.96 169.50 200.44 129.78 160.82 90.15 C 156.94 86.01 152.39 82.41 149.39 77.51 C 143.07 68.00 141.94 55.56 145.69 44.85 C 146.94 41.84 148.38 38.92 150.24 36.24 Z" />
</g>
</svg>
