<?xml version="1.0" encoding="UTF-8" ?>
<!DOCTYPE svg PUBLIC "-//W3C//DTD SVG 1.1//EN" "http://www.w3.org/Graphics/SVG/1.1/DTD/svg11.dtd">
<svg width="512pt" height="512pt" viewBox="0 0 512 512" version="1.1" xmlns="http://www.w3.org/2000/svg">
<g id="#5b6e86fd">
<path fill="#5b6e86" opacity="1.00" d=" M 180.34 19.47 C 191.62 17.25 203.65 21.20 211.78 29.22 C 257.21 74.79 302.78 120.22 348.24 165.76 C 356.04 173.92 361.65 185.07 359.61 196.67 C 357.75 211.25 345.21 220.82 335.75 230.75 C 294.54 271.54 253.57 312.56 212.60 353.59 C 207.43 358.31 202.23 363.69 195.09 365.14 C 177.52 371.65 157.01 359.34 152.42 341.67 C 148.26 328.49 154.31 314.10 164.60 305.59 C 201.55 267.31 240.03 230.12 277.03 192.03 C 266.27 179.57 253.21 169.04 242.60 156.40 C 215.97 130.04 189.94 103.08 163.23 76.77 C 154.05 68.61 150.57 54.77 154.25 43.14 C 157.85 31.23 168.06 21.72 180.34 19.47 Z" />
</g>
</svg>
