<?xml version="1.0" encoding="UTF-8" ?>
<!DOCTYPE svg PUBLIC "-//W3C//DTD SVG 1.1//EN" "http://www.w3.org/Graphics/SVG/1.1/DTD/svg11.dtd">
<svg width="512pt" height="512pt" viewBox="0 0 512 512" version="1.1" xmlns="http://www.w3.org/2000/svg">
<g id="#141d28ff">
<path fill="#141d28" opacity="1.00" d=" M 11.70 0.00 L 58.51 0.00 C 65.11 0.18 71.60 3.11 75.85 8.20 C 78.89 11.58 80.35 15.97 81.59 20.25 C 84.30 29.22 87.03 38.19 89.78 47.15 C 93.81 46.42 97.90 46.45 101.98 46.53 C 221.99 46.54 342.01 46.52 462.03 46.53 C 471.18 46.57 480.79 45.83 489.36 49.73 C 502.59 55.26 511.60 68.90 512.00 83.19 L 512.00 87.44 C 511.71 93.67 510.10 99.75 507.44 105.38 C 480.75 162.04 454.14 218.75 427.42 275.40 C 421.79 287.57 410.76 297.08 397.83 300.69 C 390.09 303.00 381.93 302.49 373.96 302.53 C 302.54 302.55 231.11 302.51 159.69 302.55 C 158.32 304.55 156.92 306.53 155.35 308.37 C 143.69 321.93 132.05 335.50 120.43 349.08 C 229.30 349.09 338.16 349.11 447.03 349.07 C 452.18 349.06 458.34 348.54 462.13 352.80 C 466.14 356.77 465.43 362.85 465.48 368.00 C 465.20 374.33 466.08 380.75 464.89 387.02 C 463.56 392.67 457.68 395.99 452.11 395.62 C 343.73 395.64 235.35 395.61 126.97 395.64 C 118.57 395.78 109.91 395.33 102.12 391.86 C 87.70 385.90 77.14 372.06 74.55 356.76 C 72.24 342.70 77.26 328.13 86.35 317.38 C 95.40 306.69 104.59 296.12 113.66 285.45 C 89.40 205.81 65.19 126.16 40.93 46.53 C 31.04 46.44 21.15 46.72 11.28 46.41 C 5.18 46.33 0.23 40.96 0.00 34.98 L 0.00 11.69 C 0.13 5.41 5.42 0.12 11.70 0.00 Z" />
<path fill="#141d28" opacity="1.00" d=" M 135.01 419.30 C 146.50 418.08 158.38 421.40 167.58 428.39 C 178.11 436.28 185.04 448.85 185.90 462.00 C 186.91 474.15 182.75 486.56 174.78 495.76 C 166.39 505.73 153.64 511.43 140.71 512.00 L 139.09 512.00 C 129.23 511.56 119.39 508.50 111.55 502.40 C 101.15 494.56 94.31 482.15 93.41 469.14 C 92.40 457.50 96.06 445.54 103.41 436.46 C 111.06 426.80 122.73 420.41 135.01 419.30 Z" />
<path fill="#141d28" opacity="1.00" d=" M 383.50 435.48 C 391.26 426.18 402.84 420.17 414.92 419.24 C 426.87 418.14 439.21 421.94 448.42 429.64 C 457.54 437.12 463.67 448.19 464.96 459.93 C 466.64 473.01 462.31 486.69 453.44 496.44 C 444.94 506.18 432.21 511.58 419.39 512.00 L 418.26 512.00 C 408.39 511.52 398.52 508.46 390.69 502.31 C 380.31 494.40 373.51 481.94 372.66 468.90 C 371.69 456.91 375.68 444.62 383.50 435.48 Z" />
</g>
</svg>
