<?xml version="1.0" encoding="UTF-8" ?>
<!DOCTYPE svg PUBLIC "-//W3C//DTD SVG 1.1//EN" "http://www.w3.org/Graphics/SVG/1.1/DTD/svg11.dtd">
<svg width="512pt" height="512pt" viewBox="0 0 512 512" version="1.1" xmlns="http://www.w3.org/2000/svg">
<g id="#ffffffff">
<path fill="#ffffff" opacity="1.00" d=" M 321.58 25.66 C 334.22 22.83 347.95 25.15 358.87 32.14 C 370.97 39.71 379.53 52.70 381.59 66.83 C 383.62 79.83 380.16 93.56 372.22 104.05 C 364.38 114.64 352.18 121.87 339.11 123.57 C 326.16 125.40 312.55 121.79 302.20 113.79 C 291.01 105.34 283.70 91.97 282.75 77.96 C 281.82 66.12 285.35 53.99 292.51 44.51 C 299.56 35.04 310.06 28.23 321.58 25.66 Z" />
<path fill="#ffffff" opacity="1.00" d=" M 0.00 73.42 C 0.29 65.20 7.71 58.07 15.97 58.28 C 95.45 58.26 174.92 58.27 254.40 58.27 C 252.30 68.81 252.30 79.73 254.41 90.27 C 174.94 90.25 95.47 90.30 16.00 90.24 C 7.87 90.41 0.51 83.51 0.00 75.41 L 0.00 73.42 Z" />
<path fill="#ffffff" opacity="1.00" d=" M 410.37 58.27 C 437.24 58.26 464.12 58.28 491.00 58.26 C 494.60 58.29 498.37 57.95 501.79 59.35 C 507.51 61.55 511.61 67.24 512.00 73.35 L 512.00 75.16 C 511.62 83.33 504.26 90.41 496.05 90.24 C 467.49 90.30 438.93 90.25 410.37 90.27 C 412.46 79.73 412.46 68.81 410.37 58.27 Z" />
<path fill="#ffffff" opacity="1.00" d=" M 172.60 206.72 C 186.78 204.63 201.77 209.05 212.46 218.62 C 222.35 227.25 228.58 239.92 229.29 253.04 C 230.16 266.26 225.36 279.71 216.41 289.47 C 207.69 299.15 195.05 305.16 182.02 305.71 C 167.31 306.53 152.46 300.26 142.67 289.28 C 132.15 277.82 127.63 261.25 130.84 246.04 C 134.67 225.87 152.25 209.36 172.60 206.72 Z" />
<path fill="#ffffff" opacity="1.00" d=" M 0.00 255.22 C 0.26 247.00 7.64 239.84 15.89 240.02 C 44.47 239.97 73.05 240.02 101.63 240.00 C 99.53 250.54 99.53 261.46 101.64 272.00 C 73.08 271.98 44.51 272.03 15.94 271.98 C 7.87 272.12 0.59 265.29 0.00 257.27 L 0.00 255.22 Z" />
<path fill="#ffffff" opacity="1.00" d=" M 257.59 240.00 C 337.08 240.01 416.58 239.98 496.07 240.02 C 504.19 239.83 511.39 246.77 512.00 254.78 L 512.00 257.04 C 511.54 265.15 504.21 272.15 496.04 271.98 C 416.56 272.02 337.07 271.99 257.59 272.00 C 259.70 261.46 259.69 250.54 257.59 240.00 Z" />
<path fill="#ffffff" opacity="1.00" d=" M 323.51 388.76 C 337.08 386.23 351.66 389.72 362.56 398.20 C 372.86 406.02 379.92 417.99 381.66 430.82 C 383.56 443.84 379.96 457.54 371.91 467.95 C 363.43 479.16 350.01 486.47 335.97 487.38 C 324.08 488.30 311.95 484.68 302.46 477.47 C 291.00 468.93 283.53 455.24 282.72 440.95 C 281.93 429.39 285.37 417.60 292.28 408.30 C 299.71 398.13 311.12 390.99 323.51 388.76 Z" />
<path fill="#ffffff" opacity="1.00" d=" M 0.00 436.74 C 0.40 428.57 7.77 421.54 15.99 421.75 C 95.46 421.71 174.93 421.74 254.40 421.74 C 252.31 432.27 252.30 443.20 254.41 453.73 C 174.96 453.73 95.51 453.74 16.07 453.73 C 7.99 453.91 0.67 447.15 0.00 439.14 L 0.00 436.74 Z" />
<path fill="#ffffff" opacity="1.00" d=" M 410.37 421.73 C 438.91 421.75 467.44 421.71 495.98 421.75 C 504.17 421.52 511.44 428.53 512.00 436.61 L 512.00 438.85 C 511.48 446.94 504.18 453.90 496.03 453.72 C 467.47 453.75 438.92 453.73 410.37 453.73 C 412.46 443.19 412.45 432.27 410.37 421.73 Z" />
</g>
</svg>
