<?xml version="1.0" encoding="UTF-8" ?>
<!DOCTYPE svg PUBLIC "-//W3C//DTD SVG 1.1//EN" "http://www.w3.org/Graphics/SVG/1.1/DTD/svg11.dtd">
<svg width="512pt" height="512pt" viewBox="0 0 512 512" version="1.1" xmlns="http://www.w3.org/2000/svg">
<g id="#141d28ff">
<path fill="#141d28" opacity="1.00" d=" M 212.59 0.00 L 219.49 0.00 C 248.12 0.47 276.71 6.43 302.89 18.10 C 308.94 21.08 315.12 23.79 321.08 26.95 C 326.73 30.30 332.39 33.65 337.99 37.11 C 364.29 54.61 386.76 78.08 402.38 105.60 C 405.43 110.41 408.16 115.41 410.48 120.62 C 441.22 180.70 440.71 255.63 409.46 315.39 C 405.32 323.86 399.92 331.57 395.13 339.65 C 429.41 373.44 463.23 407.71 497.36 441.66 C 501.37 445.67 505.32 449.90 507.86 455.03 C 510.46 459.96 511.48 465.52 512.00 471.01 L 512.00 473.80 C 511.52 493.98 493.58 511.73 473.41 512.00 L 471.78 512.00 C 466.05 511.63 460.25 510.59 455.14 507.87 C 450.41 505.55 446.58 501.85 442.84 498.23 C 408.39 463.83 373.88 429.48 339.44 395.07 C 318.01 409.68 294.18 420.87 268.93 427.00 C 231.48 435.92 191.59 435.34 154.67 424.16 C 132.83 417.59 112.27 407.24 93.22 394.78 C 67.68 377.33 45.87 354.24 30.63 327.26 C 25.64 319.59 22.15 311.11 18.10 302.94 C 6.40 276.78 0.50 248.17 0.00 219.56 L 0.00 212.71 C 0.75 182.13 7.44 151.47 21.13 124.02 C 25.62 113.70 31.64 104.17 37.53 94.61 C 55.02 68.55 78.38 46.27 105.73 30.79 C 113.46 25.73 122.03 22.22 130.28 18.14 C 156.12 6.59 184.33 0.65 212.59 0.00 M 199.64 79.82 C 184.16 81.61 168.93 85.94 155.05 93.05 C 138.85 101.24 124.55 112.93 112.56 126.51 C 97.58 143.33 86.74 163.95 82.07 186.04 C 76.96 210.23 77.89 235.80 85.31 259.43 C 92.47 281.79 106.03 301.84 123.27 317.69 C 138.70 332.34 157.59 343.39 178.08 349.23 C 215.21 359.36 257.00 354.87 289.54 333.66 C 306.89 322.45 321.87 307.55 333.23 290.30 C 344.23 273.39 351.15 253.91 353.40 233.87 C 355.90 211.37 353.68 188.14 345.48 166.95 C 339.15 150.54 329.41 135.48 317.25 122.78 C 303.09 107.58 285.71 95.20 266.27 87.74 C 245.16 79.61 222.05 77.37 199.64 79.82 Z" />
</g>
</svg>
