<?xml version="1.0" encoding="UTF-8" ?>
<!DOCTYPE svg PUBLIC "-//W3C//DTD SVG 1.1//EN" "http://www.w3.org/Graphics/SVG/1.1/DTD/svg11.dtd">
<svg width="512pt" height="512pt" viewBox="0 0 512 512" version="1.1" xmlns="http://www.w3.org/2000/svg">
<g id="#bfbfbfbf">
<path fill="#bfbfbf" opacity="0.75" d=" M 180.89 42.86 C 226.46 27.95 276.90 28.97 321.96 45.27 C 356.37 57.59 387.57 78.81 411.70 106.26 C 425.75 121.98 437.15 139.94 446.28 158.92 C 447.41 161.64 448.53 164.38 449.80 167.04 C 450.30 168.28 450.75 169.54 451.24 170.80 C 459.22 191.72 464.74 213.73 465.88 236.14 C 468.70 269.72 462.38 303.74 449.84 334.93 C 448.60 337.61 447.42 340.31 446.27 343.02 C 430.48 376.92 406.01 406.73 375.61 428.53 C 357.16 441.71 336.76 452.34 315.08 459.11 C 314.08 459.45 313.09 459.80 312.09 460.16 C 309.76 460.80 307.41 461.40 305.10 462.14 C 261.49 473.98 214.28 471.89 171.92 456.19 C 122.80 438.29 80.85 401.91 55.79 356.06 C 47.26 339.89 40.10 322.91 35.80 305.11 C 34.65 300.80 33.85 296.42 32.91 292.07 C 30.48 279.18 29.26 266.09 29.06 252.98 C 28.99 245.63 29.50 238.24 29.90 230.88 C 30.87 223.89 31.53 216.86 32.89 209.92 C 33.67 206.93 34.20 203.89 34.78 200.86 C 38.98 182.84 45.66 165.48 54.21 149.08 C 80.40 98.96 126.90 59.79 180.89 42.86 M 219.11 69.15 C 198.67 72.09 178.97 79.16 160.70 88.69 C 124.08 108.36 94.23 140.67 78.27 179.12 C 77.35 180.98 76.62 182.93 75.88 184.87 C 70.84 198.12 67.21 211.93 65.25 225.97 C 60.83 256.61 64.79 288.26 75.85 317.13 C 77.70 321.82 79.63 326.47 81.78 331.04 C 101.00 370.90 134.93 403.48 175.81 420.54 C 191.85 427.24 208.79 432.24 226.15 433.81 C 230.63 434.99 235.34 434.34 239.88 435.21 C 246.17 435.36 252.57 435.77 258.81 434.78 C 262.16 434.42 265.64 434.88 268.89 433.80 C 288.38 432.14 307.35 426.19 325.11 418.13 C 327.11 417.16 329.14 416.24 331.12 415.23 C 332.36 414.44 333.70 413.83 335.05 413.25 C 341.60 409.53 348.09 405.69 354.17 401.25 C 387.19 377.99 412.11 343.49 423.84 304.86 C 426.15 297.73 427.78 290.41 429.09 283.05 C 429.31 281.61 429.50 280.17 429.72 278.74 C 430.71 275.91 430.05 272.80 431.09 269.99 C 431.94 258.34 431.89 246.65 431.36 234.98 C 431.31 233.69 431.11 232.42 430.75 231.18 C 430.52 229.14 430.37 227.09 430.19 225.04 C 429.57 223.04 429.35 220.96 429.11 218.89 C 428.38 215.29 427.87 211.65 426.81 208.13 C 414.51 155.09 377.08 108.69 327.96 85.23 C 313.03 78.25 297.34 72.65 281.05 69.88 C 277.01 69.16 272.99 68.34 268.89 68.15 C 265.25 67.29 261.49 67.58 257.80 67.28 C 251.82 66.06 245.64 66.99 239.58 66.70 L 239.47 67.36 C 232.64 67.26 225.80 67.89 219.11 69.15 Z" />
<path fill="#bfbfbf" opacity="0.75" d=" M 184.06 156.05 C 191.80 153.19 200.80 153.94 207.95 158.09 C 245.96 180.08 283.99 202.04 322.03 223.97 C 327.62 227.04 333.41 230.43 336.82 236.03 C 339.24 239.26 340.00 243.26 341.17 247.02 C 341.48 249.68 341.47 252.37 341.20 255.04 C 340.25 257.53 339.94 260.24 338.74 262.65 C 336.23 268.17 331.75 272.58 326.51 275.54 C 286.74 298.46 247.02 321.44 207.26 344.36 C 201.19 347.78 193.83 348.50 187.09 346.99 C 175.58 344.05 166.13 333.09 166.39 320.98 C 166.33 276.33 166.38 231.68 166.36 187.03 C 166.47 182.30 165.93 177.38 167.69 172.88 C 170.39 165.25 176.53 158.99 184.06 156.05 Z" />
</g>
</svg>
