<?xml version="1.0" encoding="UTF-8" ?>
<!DOCTYPE svg PUBLIC "-//W3C//DTD SVG 1.1//EN" "http://www.w3.org/Graphics/SVG/1.1/DTD/svg11.dtd">
<svg width="512pt" height="512pt" viewBox="0 0 512 512" version="1.1" xmlns="http://www.w3.org/2000/svg">
<g id="#54d600ff">
<path fill="#54d600" opacity="1.00" d=" M 352.07 21.75 C 354.99 20.94 358.04 21.08 361.03 21.06 C 397.40 21.11 433.77 21.02 470.14 21.10 C 481.19 21.09 490.94 30.95 490.90 41.98 C 490.97 76.64 490.90 111.30 490.92 145.96 C 490.76 150.98 491.49 156.15 489.92 161.01 C 487.47 169.21 479.62 175.42 471.07 175.91 C 459.33 177.09 448.11 166.85 448.25 155.04 C 448.18 134.70 448.24 114.36 448.22 94.03 C 403.35 138.87 358.50 183.74 313.63 228.59 C 308.89 233.55 301.74 236.12 294.94 235.01 C 287.25 233.95 280.45 228.29 277.95 220.96 C 275.24 213.46 277.23 204.54 282.91 198.93 C 327.93 153.88 372.99 108.86 418.01 63.81 C 397.99 63.78 377.97 63.82 357.95 63.79 C 351.96 63.92 345.97 61.48 341.88 57.08 C 336.58 51.63 334.68 43.23 337.01 36.01 C 339.14 29.09 345.03 23.47 352.07 21.75 Z" />
<path fill="#54d600" opacity="1.00" d=" M 196.40 285.41 C 201.84 279.77 210.49 277.60 217.95 279.99 C 225.52 282.25 231.49 289.05 232.68 296.87 C 233.87 303.62 231.48 310.80 226.62 315.60 C 182.44 359.81 138.23 403.99 94.05 448.20 C 112.70 448.20 131.36 448.21 150.01 448.19 C 153.62 448.20 157.33 448.01 160.82 449.13 C 167.45 451.07 172.90 456.46 174.96 463.04 C 177.10 469.60 175.81 477.17 171.53 482.60 C 167.48 487.96 160.78 491.10 154.07 490.93 C 116.68 490.91 79.29 490.97 41.89 490.90 C 30.84 490.91 21.03 481.05 21.10 470.00 C 21.03 434.02 21.11 398.03 21.08 362.05 C 21.10 358.38 20.87 354.62 22.05 351.08 C 24.65 342.11 33.73 335.59 43.07 336.04 C 54.08 336.08 63.82 345.91 63.76 356.92 C 63.84 377.28 63.75 397.63 63.80 417.99 C 108.05 373.85 152.16 329.57 196.40 285.41 Z" />
</g>
</svg>
